<?xml version="1.0" encoding="utf-8" standalone="no"?>
<!DOCTYPE svg PUBLIC "-//W3C//DTD SVG 1.1//EN"
  "http://www.w3.org/Graphics/SVG/1.1/DTD/svg11.dtd">
<!-- Created with matplotlib (http://matplotlib.org/) -->
<svg height="345pt" version="1.1" viewBox="0 0 460 345" width="460pt" xmlns="http://www.w3.org/2000/svg" xmlns:xlink="http://www.w3.org/1999/xlink">
 <defs>
  <style type="text/css">
*{stroke-linecap:butt;stroke-linejoin:round;}
  </style>
 </defs>
 <g id="figure_1">
  <g id="patch_1">
   <path d="M 0 345.6 
L 460.8 345.6 
L 460.8 0 
L 0 0 
z
" style="fill:#ffffff;"/>
  </g>
  <g id="axes_1">
   <g id="line2d_1">
    <path clip-path="url(#p66bf9bddcc)" d="M 97.112121 313.724083 
L 95.907116 313.15714 
L 94.62212 312.754406 
L 93.441985 312.24225 
L 92.216738 311.916721 
L 91.007247 311.438824 
L 89.7915 311.075281 
L 88.570046 310.668672 
L 87.119374 310.243744 
L 85.864942 309.830861 
L 84.472903 309.554049 
L 83.308156 309.16263 
L 81.851052 308.762 
L 80.620422 308.384447 
L 79.300628 308.02679 
L 78.080648 307.749325 
L 76.80224 307.499263 
L 75.498813 307.210692 
L 74.306104 306.941706 
L 72.926747 306.693635 
L 71.797338 306.431901 
L 70.535692 306.34383 
L 69.522164 306.159008 
L 68.550993 305.980779 
L 67.454408 305.814323 
L 66.305654 305.650491 
L 65.173154 305.570834 
L 63.952405 305.410044 
L 62.624816 305.317892 
L 61.42602 305.2435 
L 60.226804 305.256464 
L 59.015222 305.174956 
L 57.807574 305.201626 
L 56.570892 305.214896 
L 55.326161 305.216576 
L 54.105157 305.324675 
L 52.843733 305.455774 
L 51.415431 305.577352 
L 50.157685 305.617041 
L 48.626595 305.821962 
L 47.351494 306.01189 
L 45.839431 306.293263 
L 44.56928 306.418252 
L 43.195142 306.837555 
L 41.930006 307.198967 
L 40.603124 307.700045 
L 39.057485 308.402307 
L 37.551762 309.323321 
L 36.301926 310.60257 
L 35.35483 313.11059 
L 35.018182 313.495592 
L 36.510112 314.126207 
L 37.332735 314.372149 
L 38.65638 314.211264 
L 39.784144 314.212437 
L 41.058284 314.115128 
L 42.255891 313.985794 
L 43.579663 314.011236 
L 44.697939 313.833722 
L 45.673007 313.871282 
L 46.963785 313.651029 
L 48.149411 313.600112 
L 49.370601 313.374151 
L 50.568097 313.282842 
L 51.820855 313.202224 
L 52.932821 312.998342 
L 54.196087 312.889688 
L 55.375169 312.767375 
L 56.66392 312.700422 
L 57.909745 312.609005 
L 59.237017 312.553293 
L 60.583075 312.640527 
L 61.86557 312.474608 
L 63.266486 312.509412 
L 64.5539 312.416948 
L 66.040356 312.439364 
L 67.2836 312.371084 
L 68.623763 312.488491 
L 69.827539 312.466281 
L 71.345197 312.5573 
L 72.643084 312.528249 
L 74.01621 312.601789 
L 75.300712 312.67108 
L 76.748696 312.888761 
L 78.02834 312.867188 
L 79.358166 312.960943 
L 80.682542 313.135489 
L 82.305802 313.008305 
L 83.608503 313.110191 
L 85.004399 313.014903 
L 86.149904 313.306477 
L 87.528286 313.087771 
L 88.720805 313.358786 
L 90.085585 313.338887 
L 91.235229 313.458721 
L 92.556423 313.7853 
L 93.744934 313.981289 
L 94.895129 314.129292 
L 96.085433 314.177216 
L 97.171025 314.388481 
" style="fill:none;stroke:#000000;stroke-linecap:square;"/>
   </g>
   <g id="line2d_2">
    <path clip-path="url(#p66bf9bddcc)" d="M 97.091811 245.132375 
L 95.88464 244.502333 
L 94.603437 244.156455 
L 93.430713 243.486982 
L 92.216838 243.247788 
L 91.039826 242.75094 
L 89.861981 242.383219 
L 88.675946 241.908374 
L 87.27795 241.544644 
L 86.04218 241.063546 
L 84.676264 240.765478 
L 83.470154 240.374562 
L 82.025382 239.973812 
L 80.797313 239.554324 
L 79.526816 239.175514 
L 78.354245 238.846445 
L 77.1105 238.567602 
L 75.830496 238.194418 
L 74.663118 237.84933 
L 73.292717 237.543502 
L 72.093884 237.219535 
L 70.805046 237.118589 
L 69.71492 236.849179 
L 68.675122 236.630597 
L 67.505283 236.39076 
L 66.368962 236.189985 
L 65.203609 236.051068 
L 64.002658 235.851566 
L 62.657864 235.683599 
L 61.474047 235.573535 
L 60.210375 235.47225 
L 59.011432 235.340372 
L 57.696263 235.336324 
L 56.481333 235.372204 
L 55.168855 235.339604 
L 53.958567 235.496646 
L 52.674668 235.582489 
L 51.297563 235.838731 
L 50.057964 235.818814 
L 48.602387 236.143672 
L 47.414821 236.307011 
L 45.913099 236.752061 
L 44.673261 236.953294 
L 43.314267 237.521465 
L 42.084943 238.050855 
L 40.757372 238.727436 
L 39.289713 239.641844 
L 37.823445 240.767861 
L 36.653984 242.241738 
L 35.67946 245.167854 
L 35.339455 245.54145 
L 36.842023 246.731261 
L 37.750817 247.146199 
L 39.127729 247.236508 
L 40.331344 247.395702 
L 41.603957 247.45175 
L 42.849989 247.477654 
L 44.281583 247.532558 
L 45.531248 247.525971 
L 46.673378 247.626704 
L 48.005262 247.575805 
L 49.21115 247.604384 
L 50.446485 247.536266 
L 51.71052 247.546763 
L 52.959896 247.483448 
L 54.134743 247.417229 
L 55.38111 247.327724 
L 56.59506 247.233495 
L 57.819871 247.163132 
L 59.041638 247.05039 
L 60.326264 246.983748 
L 61.626354 246.912879 
L 62.876858 246.776848 
L 64.148612 246.694077 
L 65.423184 246.57387 
L 66.770375 246.495339 
L 68.010544 246.341584 
L 69.287816 246.318692 
L 70.517862 246.171709 
L 71.965042 246.10135 
L 73.25407 245.987413 
L 74.604742 245.880854 
L 75.851878 245.791001 
L 77.210143 245.750491 
L 78.413793 245.625586 
L 79.706041 245.539633 
L 80.961016 245.553265 
L 82.436818 245.348901 
L 83.698136 245.313522 
L 85.016274 245.149683 
L 86.170988 245.275587 
L 87.519631 244.999588 
L 88.668467 245.16166 
L 89.994173 245.034251 
L 91.140221 245.055941 
L 92.482067 245.254789 
L 93.68403 245.400342 
L 94.862594 245.483283 
L 96.053394 245.510135 
L 97.149137 245.760102 
" style="fill:none;stroke:#000000;stroke-linecap:square;"/>
   </g>
   <g id="line2d_3">
    <path clip-path="url(#p66bf9bddcc)" d="M 97.053053 176.526125 
L 95.835801 175.903242 
L 94.559463 175.564198 
L 93.403748 174.880012 
L 92.22046 174.648873 
L 91.08482 174.194642 
L 89.965342 173.847414 
L 88.83338 173.363965 
L 87.513705 173.061719 
L 86.321814 172.59754 
L 85.010783 172.307561 
L 83.809296 171.949296 
L 82.410072 171.552683 
L 81.196402 171.11683 
L 79.978331 170.747437 
L 78.840431 170.408324 
L 77.619938 170.103041 
L 76.391046 169.703051 
L 75.256716 169.326106 
L 73.960816 168.971493 
L 72.713487 168.610025 
L 71.421913 168.406761 
L 70.244991 168.096147 
L 69.15271 167.808471 
L 67.890755 167.520766 
L 66.730435 167.205916 
L 65.512327 166.994565 
L 64.320148 166.665806 
L 62.925047 166.420771 
L 61.731009 166.167736 
L 60.422555 165.971419 
L 59.186894 165.701224 
L 57.756865 165.645221 
L 56.515187 165.652433 
L 55.12663 165.630107 
L 53.868282 165.834437 
L 52.537946 165.933597 
L 51.150721 166.345667 
L 49.916831 166.375357 
L 48.485982 166.826539 
L 47.399377 167.040546 
L 45.934355 167.589792 
L 44.714267 167.894261 
L 43.372725 168.536181 
L 42.199741 169.210718 
L 40.888699 170.006015 
L 39.491502 171.052957 
L 38.074738 172.234648 
L 36.947605 173.786285 
L 35.91613 176.916117 
L 35.577769 177.183632 
L 37.068848 178.932788 
L 38.053639 179.49037 
L 39.423826 179.830699 
L 40.638331 180.107182 
L 41.851676 180.32714 
L 43.051994 180.401466 
L 44.45669 180.452464 
L 45.7252 180.522376 
L 46.959193 180.595409 
L 48.245228 180.643825 
L 49.384041 180.644748 
L 50.527007 180.613422 
L 51.783257 180.619122 
L 52.956643 180.564356 
L 54.136093 180.503704 
L 55.324772 180.413567 
L 56.51101 180.302904 
L 57.664641 180.219005 
L 58.832256 180.08611 
L 60.07654 179.983313 
L 61.321769 179.826407 
L 62.560678 179.66329 
L 63.767225 179.496763 
L 65.072472 179.344759 
L 66.346452 179.180153 
L 67.595285 178.977858 
L 68.827918 178.857773 
L 70.103448 178.645267 
L 71.484499 178.493328 
L 72.770333 178.273138 
L 74.108583 178.072749 
L 75.386853 177.819841 
L 76.732261 177.639068 
L 77.965821 177.377917 
L 79.322166 177.206124 
L 80.629758 177.080365 
L 82.084815 176.787715 
L 83.348351 176.63107 
L 84.67552 176.419127 
L 85.85641 176.444184 
L 87.19928 176.134636 
L 88.367983 176.220226 
L 89.738496 176.087494 
L 90.935281 176.074496 
L 92.33978 176.25265 
L 93.588307 176.436699 
L 94.824019 176.647896 
L 96.023346 176.786196 
L 97.137512 177.128802 
" style="fill:none;stroke:#000000;stroke-linecap:square;"/>
   </g>
   <g id="line2d_4">
    <path clip-path="url(#p66bf9bddcc)" d="M 97.07579 107.952419 
L 95.865354 107.339563 
L 94.585204 107.027966 
L 93.416125 106.413358 
L 92.224142 106.191715 
L 91.078428 105.854606 
L 89.959755 105.538469 
L 88.815423 105.166133 
L 87.522579 104.887597 
L 86.330566 104.515317 
L 85.032489 104.285858 
L 83.823092 103.971752 
L 82.428703 103.582531 
L 81.212311 103.22885 
L 79.974508 102.888625 
L 78.834353 102.61199 
L 77.540969 102.274532 
L 76.332436 101.936401 
L 75.161987 101.601062 
L 73.983337 101.232446 
L 72.691938 100.919221 
L 71.468332 100.615947 
L 70.221137 100.336215 
L 69.174077 100.041836 
L 67.857633 99.774125 
L 66.684377 99.393067 
L 65.420269 99.109301 
L 64.270055 98.70423 
L 62.899504 98.429253 
L 61.669733 98.095845 
L 60.341837 97.876344 
L 59.055294 97.535259 
L 57.610351 97.429246 
L 56.316854 97.397927 
L 54.898009 97.374975 
L 53.542135 97.528654 
L 52.215845 97.583998 
L 50.821949 97.978993 
L 49.56999 98.026714 
L 48.202288 98.482883 
L 47.167765 98.650224 
L 45.795692 99.283438 
L 44.62377 99.52699 
L 43.363671 100.237338 
L 42.284329 100.761981 
L 41.041479 101.574295 
L 39.741629 102.488854 
L 38.410534 103.659155 
L 37.328139 105.172531 
L 36.291915 108.17956 
L 35.959502 108.345506 
L 37.405109 110.683039 
L 38.451787 111.444517 
L 39.766891 112.083021 
L 40.973523 112.564715 
L 42.177872 112.971467 
L 43.302052 113.150466 
L 44.683579 113.294985 
L 45.949904 113.468097 
L 47.208244 113.640515 
L 48.437663 113.813889 
L 49.576985 113.902148 
L 50.650597 114.020628 
L 51.859707 114.083966 
L 52.941891 114.051922 
L 54.151139 114.071359 
L 55.282474 114.030985 
L 56.512103 113.956311 
L 57.590199 113.973366 
L 58.732803 113.840956 
L 59.920978 113.83233 
L 61.112589 113.649185 
L 62.280235 113.497279 
L 63.416285 113.365514 
L 64.632626 113.189061 
L 65.791925 113.036676 
L 66.926227 112.812683 
L 68.092494 112.727287 
L 69.25928 112.45707 
L 70.482458 112.306386 
L 71.684172 112.016888 
L 72.998542 111.766449 
L 74.359283 111.47263 
L 75.672931 111.272919 
L 76.887629 110.894526 
L 78.332163 110.736107 
L 79.741319 110.548166 
L 81.226163 110.26387 
L 82.557723 110.045398 
L 83.982655 109.911034 
L 85.288155 109.79917 
L 86.650433 109.591805 
L 87.896582 109.466666 
L 89.344615 109.266712 
L 90.649095 109.050048 
L 92.128106 108.997644 
L 93.454094 108.95473 
L 94.766912 108.983853 
L 95.993522 108.919885 
L 97.125552 109.015911 
" style="fill:none;stroke:#000000;stroke-linecap:square;"/>
   </g>
   <g id="line2d_5">
    <path clip-path="url(#p66bf9bddcc)" d="M 97.092958 39.385193 
L 95.880393 38.880134 
L 94.579137 38.662928 
L 93.381071 38.179507 
L 92.151155 38.016428 
L 90.957415 37.731158 
L 89.79581 37.514759 
L 88.597547 37.202384 
L 87.302139 36.985927 
L 86.112471 36.635326 
L 84.836806 36.337196 
L 83.681069 35.955841 
L 82.333404 35.522038 
L 81.190758 35.222592 
L 79.972137 34.86162 
L 78.872523 34.605358 
L 77.532203 34.253956 
L 76.325855 33.938138 
L 75.099394 33.638648 
L 73.928945 33.262659 
L 72.537326 32.979509 
L 71.34516 32.623932 
L 70.026963 32.336896 
L 69.032694 32.065999 
L 67.674514 31.787606 
L 66.505624 31.455894 
L 65.252284 31.163556 
L 64.133724 30.816109 
L 62.81835 30.60462 
L 61.542038 30.318249 
L 60.141766 30.18966 
L 58.786142 29.894881 
L 57.309755 29.817898 
L 55.965467 29.794953 
L 54.513183 29.843214 
L 53.089544 29.826096 
L 51.703572 29.781818 
L 50.275239 29.997927 
L 48.951939 30.023911 
L 47.645988 30.333528 
L 46.659692 30.412783 
L 45.397118 30.918431 
L 44.311808 31.014022 
L 43.094047 31.62791 
L 42.141905 32.035528 
L 40.966936 32.754276 
L 39.771899 33.435708 
L 38.525646 34.459251 
L 37.475464 36.097259 
L 36.492321 38.839292 
L 36.233196 39.167858 
L 37.625862 42.255207 
L 38.820427 43.952396 
L 40.103309 44.994776 
L 41.295544 45.912936 
L 42.436757 46.734772 
L 43.444842 47.278183 
L 44.746357 47.711402 
L 45.911292 48.03834 
L 47.152363 48.296948 
L 48.322496 48.618427 
L 49.422789 48.860425 
L 50.327922 49.11554 
L 51.364681 49.24982 
L 52.235314 49.178266 
L 53.499252 49.407465 
L 54.538723 49.381359 
L 55.868501 49.428184 
L 56.883734 49.414807 
L 58.111906 49.207581 
L 59.298648 49.232235 
L 60.485305 48.923908 
L 61.676871 48.645571 
L 62.807894 48.394082 
L 63.998113 48.106416 
L 65.131054 47.859377 
L 66.235672 47.484489 
L 67.281154 47.367638 
L 68.347248 46.977873 
L 69.46317 46.770904 
L 70.623688 46.447682 
L 71.862742 46.19957 
L 73.258995 45.854665 
L 74.463847 45.587107 
L 75.561075 45.095133 
L 77.055959 44.957206 
L 78.491741 44.639259 
L 79.965087 44.244065 
L 81.362107 43.923452 
L 82.886402 43.695485 
L 84.387029 43.43558 
L 85.839175 43.146543 
L 87.219999 42.889249 
L 88.779378 42.56035 
L 90.237529 42.155991 
L 91.779263 41.95756 
L 93.235597 41.604985 
L 94.655711 41.326549 
L 95.963832 41.048763 
L 97.135513 40.960641 
" style="fill:none;stroke:#000000;stroke-linecap:square;"/>
   </g>
   <g id="line2d_6">
    <path clip-path="url(#p66bf9bddcc)" d="M 179.213228 313.716337 
L 177.987668 313.377243 
L 176.683813 313.112965 
L 175.46776 312.764871 
L 174.198588 312.517894 
L 172.939061 312.241952 
L 171.675937 311.923554 
L 170.404073 311.771064 
L 168.955519 311.323055 
L 167.683496 311.154299 
L 166.310005 310.839952 
L 165.165252 310.613668 
L 163.811856 310.203701 
L 162.603996 309.954417 
L 161.337585 309.614872 
L 160.136977 309.437312 
L 158.854851 309.079146 
L 157.624708 308.901245 
L 156.451557 308.607758 
L 155.170685 308.400331 
L 154.111329 308.139162 
L 152.899132 307.958108 
L 151.809617 307.786011 
L 150.682762 307.506285 
L 149.482939 307.304854 
L 148.227679 307.104089 
L 147.001964 307.006303 
L 145.66925 306.77418 
L 144.29637 306.655931 
L 143.001099 306.496077 
L 141.792204 306.482254 
L 140.549484 306.348404 
L 139.379375 306.304328 
L 138.144401 306.253439 
L 136.898775 306.251343 
L 135.666452 306.310518 
L 134.408298 306.451588 
L 133.029922 306.551963 
L 131.771609 306.634438 
L 130.308677 306.805901 
L 128.907973 307.034704 
L 127.512302 307.254881 
L 126.148847 307.464658 
L 124.857803 307.765372 
L 123.60809 308.20457 
L 122.351359 308.632101 
L 120.910504 309.283198 
L 119.433202 310.061777 
L 118.260209 311.2056 
L 117.298072 313.319316 
L 117.083239 313.732882 
L 118.548831 314.640454 
L 119.457316 314.96599 
L 120.846084 314.956107 
L 122.016584 315.032804 
L 123.289322 314.992401 
L 124.516365 314.90581 
L 125.846852 314.972614 
L 127.013768 314.82098 
L 128.058509 314.85322 
L 129.365642 314.634439 
L 130.605775 314.617466 
L 131.84281 314.435464 
L 133.133398 314.379615 
L 134.425332 314.286463 
L 135.602455 314.213682 
L 136.896959 314.106693 
L 138.155141 314.040702 
L 139.43411 313.937157 
L 140.750724 313.886338 
L 142.080689 313.83393 
L 143.486831 313.861433 
L 144.793303 313.774376 
L 146.163899 313.796324 
L 147.465209 313.747087 
L 148.949225 313.790129 
L 150.197267 313.742507 
L 151.487888 313.84667 
L 152.720447 313.847128 
L 154.233544 313.90531 
L 155.520674 313.871318 
L 156.843963 313.877629 
L 158.102869 313.909408 
L 159.465963 314.03625 
L 160.725021 313.998918 
L 162.035781 314.014962 
L 163.295934 314.074 
L 164.837627 313.973672 
L 166.060221 313.993987 
L 167.377171 313.9576 
L 168.475601 314.124616 
L 169.821218 313.946409 
L 170.998844 314.134256 
L 172.349282 314.063117 
L 173.503843 314.0768 
L 174.814901 314.244598 
L 176.006869 314.289347 
L 177.136632 314.288234 
L 178.303321 314.267711 
L 179.364412 314.462112 
" style="fill:none;stroke:#000000;stroke-linecap:square;"/>
   </g>
   <g id="line2d_7">
    <path clip-path="url(#p66bf9bddcc)" d="M 179.183169 245.120124 
L 177.961659 244.750837 
L 176.683623 244.537475 
L 175.506764 244.113656 
L 174.287034 243.936423 
L 173.079985 243.618435 
L 171.876995 243.323538 
L 170.651799 243.099031 
L 169.284388 242.714953 
L 168.037025 242.508381 
L 166.709805 242.21797 
L 165.542858 241.983934 
L 164.212362 241.593584 
L 163.002507 241.343725 
L 161.772968 241.022872 
L 160.607514 240.839785 
L 159.349506 240.508089 
L 158.127832 240.312658 
L 156.951539 240.016965 
L 155.642439 239.795548 
L 154.477045 239.523788 
L 153.212798 239.362731 
L 152.062107 239.177666 
L 150.919938 238.930399 
L 149.658531 238.73731 
L 148.440724 238.550662 
L 147.209121 238.46589 
L 145.936582 238.249805 
L 144.588858 238.139967 
L 143.349979 238.012023 
L 142.139411 237.995682 
L 140.924724 237.899081 
L 139.677851 237.871547 
L 138.47112 237.845455 
L 137.143788 237.85276 
L 135.916601 237.92597 
L 134.637597 238.084949 
L 133.299941 238.21163 
L 132.03313 238.316382 
L 130.633892 238.525834 
L 129.301616 238.716327 
L 127.931333 238.988928 
L 126.588547 239.233569 
L 125.307026 239.606168 
L 124.039804 240.1072 
L 122.781719 240.525331 
L 121.327231 241.194741 
L 119.867891 241.930103 
L 118.737881 243.030056 
L 117.751619 245.279696 
L 117.531109 245.483528 
L 118.943797 246.690131 
L 119.884571 247.147271 
L 121.241209 247.378796 
L 122.414108 247.565021 
L 123.628713 247.664644 
L 124.841346 247.703306 
L 126.201365 247.789864 
L 127.412791 247.785098 
L 128.57293 247.862875 
L 129.888927 247.792235 
L 131.122301 247.842179 
L 132.321433 247.784846 
L 133.574215 247.803142 
L 134.820625 247.728726 
L 136.003658 247.724691 
L 137.274732 247.640941 
L 138.560425 247.595235 
L 139.79321 247.502334 
L 141.095273 247.446162 
L 142.391453 247.355654 
L 143.775069 247.31921 
L 145.059496 247.216276 
L 146.377701 247.167634 
L 147.682582 247.079637 
L 149.093614 247.040026 
L 150.342432 246.950276 
L 151.635469 246.966905 
L 152.881052 246.879461 
L 154.358731 246.836148 
L 155.645451 246.756929 
L 156.95015 246.685473 
L 158.197323 246.641839 
L 159.525548 246.656999 
L 160.725799 246.57863 
L 162.018483 246.558475 
L 163.222467 246.576225 
L 164.702718 246.474373 
L 165.901056 246.425001 
L 167.198653 246.381524 
L 168.319936 246.439461 
L 169.649725 246.261589 
L 170.808712 246.32998 
L 172.135218 246.171189 
L 173.296156 246.067944 
L 174.603841 246.099044 
L 175.818345 246.042258 
L 176.985995 245.909453 
L 178.16173 245.766368 
L 179.260779 245.861329 
" style="fill:none;stroke:#000000;stroke-linecap:square;"/>
   </g>
   <g id="line2d_8">
    <path clip-path="url(#p66bf9bddcc)" d="M 179.171942 176.555645 
L 177.960218 176.205916 
L 176.69749 176.04915 
L 175.544078 175.6122 
L 174.342911 175.493639 
L 173.165137 175.167523 
L 171.99321 174.931335 
L 170.786742 174.615621 
L 169.481164 174.308142 
L 168.248673 174.064549 
L 166.957244 173.778248 
L 165.722519 173.535879 
L 164.41645 173.164753 
L 163.148986 172.912881 
L 161.934247 172.594413 
L 160.724076 172.418262 
L 159.45069 172.062856 
L 158.204894 171.862849 
L 157.019831 171.563664 
L 155.714238 171.313092 
L 154.480861 171.029607 
L 153.146821 170.858541 
L 151.920944 170.658263 
L 150.699524 170.405393 
L 149.379529 170.201153 
L 148.14928 169.995353 
L 146.910928 169.890399 
L 145.67589 169.691215 
L 144.305979 169.556352 
L 143.100598 169.447434 
L 141.836749 169.411772 
L 140.613452 169.359013 
L 139.248591 169.352377 
L 138.006962 169.385945 
L 136.598442 169.446752 
L 135.381237 169.567689 
L 134.090472 169.751551 
L 132.844167 169.914601 
L 131.630098 170.071493 
L 130.377562 170.315445 
L 129.127978 170.568963 
L 127.895057 170.872421 
L 126.6325 171.172977 
L 125.432725 171.589535 
L 124.221056 172.154099 
L 123.024092 172.580117 
L 121.585508 173.297446 
L 120.191284 173.972163 
L 119.16901 174.978436 
L 118.227968 177.10315 
L 118.090398 177.116302 
L 119.522159 178.388408 
L 120.570528 178.861099 
L 121.922769 179.233842 
L 123.160403 179.439754 
L 124.375617 179.680138 
L 125.623813 179.762648 
L 126.985625 179.880086 
L 128.237337 179.990805 
L 129.42893 180.086759 
L 130.692503 180.117814 
L 131.879781 180.210585 
L 133.078815 180.242542 
L 134.373643 180.29305 
L 135.605267 180.251387 
L 136.812881 180.277416 
L 138.033572 180.243273 
L 139.316068 180.205527 
L 140.494347 180.127265 
L 141.760625 180.082041 
L 143.011163 179.986544 
L 144.377575 179.931946 
L 145.625343 179.788201 
L 146.887013 179.702755 
L 148.173848 179.567748 
L 149.531532 179.471 
L 150.785736 179.325506 
L 152.073104 179.287256 
L 153.334775 179.154559 
L 154.759327 179.065678 
L 155.995287 178.920774 
L 157.293279 178.819487 
L 158.547792 178.710853 
L 159.845356 178.626667 
L 161.008561 178.481397 
L 162.289463 178.394998 
L 163.472151 178.339227 
L 164.86705 178.180865 
L 166.041043 178.069182 
L 167.290181 177.975734 
L 168.419954 177.927242 
L 169.69496 177.718252 
L 170.839035 177.705255 
L 172.13744 177.520022 
L 173.302421 177.402784 
L 174.588784 177.40106 
L 175.793181 177.323116 
L 176.967346 177.229774 
L 178.123273 177.104839 
L 179.220773 177.246026 
" style="fill:none;stroke:#000000;stroke-linecap:square;"/>
   </g>
   <g id="line2d_9">
    <path clip-path="url(#p66bf9bddcc)" d="M 179.184033 107.979243 
L 177.972391 107.54278 
L 176.704737 107.345223 
L 175.541346 106.847923 
L 174.34216 106.680436 
L 173.169194 106.395179 
L 172.022051 106.072154 
L 170.834371 105.85779 
L 169.579716 105.540776 
L 168.36784 105.332146 
L 167.097726 105.084644 
L 165.849753 104.863074 
L 164.515307 104.542176 
L 163.23423 104.345239 
L 161.969518 104.073032 
L 160.761133 103.917887 
L 159.420132 103.59645 
L 158.210359 103.43171 
L 156.978895 103.185515 
L 155.758331 102.970586 
L 154.434192 102.733279 
L 153.168102 102.560427 
L 151.850839 102.386518 
L 150.685989 102.180704 
L 149.298284 101.987138 
L 148.072175 101.829867 
L 146.806563 101.700734 
L 145.625124 101.546182 
L 144.340624 101.418199 
L 143.104619 101.310206 
L 141.804917 101.245086 
L 140.496714 101.202977 
L 139.104079 101.157226 
L 137.818805 101.184252 
L 136.377534 101.212468 
L 135.126725 101.323737 
L 133.850119 101.483406 
L 132.556222 101.621813 
L 131.330297 101.763026 
L 130.05326 101.985234 
L 128.892394 102.221038 
L 127.63998 102.511747 
L 126.429669 102.80951 
L 125.253366 103.156119 
L 124.151668 103.641524 
L 122.965405 103.99233 
L 121.605519 104.636933 
L 120.22512 105.305045 
L 119.182427 106.330118 
L 118.192162 108.664779 
L 118.043454 108.517413 
L 119.486302 110.310501 
L 120.598133 110.822733 
L 121.946381 111.380228 
L 123.183915 111.659933 
L 124.400856 112.077579 
L 125.618585 112.235045 
L 126.995752 112.381165 
L 128.264831 112.557906 
L 129.535874 112.715848 
L 130.790838 112.823589 
L 131.965269 112.890149 
L 133.114104 112.9456 
L 134.424768 113.027746 
L 135.616904 113.005151 
L 136.888069 113.055765 
L 138.08015 112.993945 
L 139.400392 112.957223 
L 140.523028 112.88926 
L 141.782896 112.834524 
L 143.014703 112.782459 
L 144.322665 112.676189 
L 145.533142 112.549606 
L 146.770238 112.454514 
L 148.064304 112.32652 
L 149.394891 112.197807 
L 150.650436 112.05181 
L 151.923033 111.992532 
L 153.197063 111.836279 
L 154.561218 111.733089 
L 155.756067 111.534217 
L 157.051382 111.404358 
L 158.323388 111.245266 
L 159.63417 111.16271 
L 160.72144 110.948813 
L 162.041569 110.830271 
L 163.224734 110.728792 
L 164.63134 110.511578 
L 165.814278 110.329505 
L 167.086663 110.233019 
L 168.254778 110.114812 
L 169.491822 109.92867 
L 170.652518 109.823358 
L 171.934678 109.644065 
L 173.137054 109.421976 
L 174.451164 109.391176 
L 175.724201 109.204563 
L 176.968727 109.015878 
L 178.15216 108.759311 
L 179.261013 108.765483 
" style="fill:none;stroke:#000000;stroke-linecap:square;"/>
   </g>
   <g id="line2d_10">
    <path clip-path="url(#p66bf9bddcc)" d="M 179.200404 39.382689 
L 178.000045 38.867696 
L 176.729287 38.664147 
L 175.564626 38.069729 
L 174.348324 37.91294 
L 173.168569 37.589575 
L 172.013438 37.326126 
L 170.825329 36.997301 
L 169.607962 36.799683 
L 168.412152 36.524344 
L 167.185918 36.267854 
L 165.984059 35.985027 
L 164.712125 35.638216 
L 163.453736 35.470338 
L 162.212162 35.184369 
L 160.958379 35.025732 
L 159.59887 34.7005 
L 158.305457 34.580983 
L 157.04795 34.356696 
L 155.782445 34.135354 
L 154.450705 33.922825 
L 153.180937 33.761792 
L 151.877715 33.604516 
L 150.728116 33.472182 
L 149.326841 33.312079 
L 148.06816 33.221359 
L 146.792131 33.13336 
L 145.563321 33.050052 
L 144.275137 32.947841 
L 143.050247 32.894506 
L 141.726557 32.85543 
L 140.481197 32.861586 
L 139.094563 32.823785 
L 137.871932 32.885891 
L 136.408877 32.920181 
L 135.138171 33.011555 
L 133.711169 33.10372 
L 132.398392 33.238445 
L 131.091923 33.372271 
L 129.911338 33.560297 
L 128.785107 33.754355 
L 127.596152 34.031006 
L 126.45927 34.257443 
L 125.275355 34.55608 
L 124.209013 34.946353 
L 122.999251 35.210852 
L 121.643265 35.835246 
L 120.2716 36.413308 
L 119.229227 37.481466 
L 118.238344 39.735703 
L 118.077119 39.458295 
L 119.486705 41.878098 
L 120.710755 42.688551 
L 122.054118 43.575068 
L 123.332835 43.996717 
L 124.5972 44.647936 
L 125.787405 44.933081 
L 127.171971 45.220219 
L 128.476451 45.505398 
L 129.772932 45.758653 
L 130.989336 45.971967 
L 132.176045 46.133292 
L 133.26208 46.334253 
L 134.511776 46.477315 
L 135.587331 46.48674 
L 136.8945 46.675337 
L 138.014746 46.653828 
L 139.384527 46.680762 
L 140.436583 46.705727 
L 141.739076 46.64889 
L 142.94467 46.677369 
L 144.16278 46.539172 
L 145.329188 46.396788 
L 146.520663 46.332939 
L 147.736523 46.182881 
L 148.962844 46.103615 
L 150.101384 45.891533 
L 151.298233 45.879421 
L 152.494579 45.647795 
L 153.772399 45.548983 
L 154.904443 45.258779 
L 156.214805 45.131374 
L 157.503174 44.902855 
L 158.739841 44.769214 
L 159.720903 44.405474 
L 161.111893 44.243776 
L 162.323561 43.973556 
L 163.756089 43.633118 
L 164.97639 43.283505 
L 166.317033 43.116334 
L 167.611585 42.840681 
L 168.866225 42.585411 
L 170.099211 42.324307 
L 171.38324 42.077256 
L 172.676631 41.706032 
L 174.017114 41.59176 
L 175.361238 41.311165 
L 176.688124 41.041893 
L 177.938736 40.685788 
L 179.121547 40.512918 
" style="fill:none;stroke:#000000;stroke-linecap:square;"/>
   </g>
   <g id="line2d_11">
    <path clip-path="url(#p66bf9bddcc)" d="M 261.363814 313.708399 
L 260.147325 313.444059 
L 258.854649 313.244556 
L 257.637923 312.89792 
L 256.35794 312.704591 
L 255.071775 312.491813 
L 253.783986 312.211542 
L 252.477548 312.167557 
L 251.039339 311.71331 
L 249.734011 311.644028 
L 248.357054 311.320313 
L 247.163225 311.165817 
L 245.82423 310.779108 
L 244.564286 310.616911 
L 243.269979 310.303938 
L 242.020625 310.186379 
L 240.671401 309.809056 
L 239.422382 309.696275 
L 238.178136 309.439957 
L 236.908152 309.257089 
L 235.792985 309.042777 
L 234.579642 308.855157 
L 233.401696 308.681297 
L 232.263699 308.407234 
L 231.005588 308.2037 
L 229.75076 308.034865 
L 228.471969 307.923435 
L 227.096938 307.697333 
L 225.719486 307.604338 
L 224.326764 307.425723 
L 223.123812 307.422529 
L 221.797351 307.304737 
L 220.650642 307.250069 
L 219.426517 307.178769 
L 218.229966 307.184967 
L 217.027917 307.237301 
L 215.802809 307.35416 
L 214.460036 307.415963 
L 213.234311 307.470291 
L 211.778525 307.586022 
L 210.377888 307.855076 
L 209.033264 307.939181 
L 207.713831 308.139857 
L 206.508986 308.333462 
L 205.31483 308.792728 
L 204.117808 309.142292 
L 202.745796 309.745653 
L 201.32562 310.370898 
L 200.172347 311.450483 
L 199.194847 313.501988 
L 199.045709 313.903485 
L 200.501592 315.067219 
L 201.47151 315.453095 
L 202.883732 315.533535 
L 204.102612 315.635064 
L 205.404086 315.595622 
L 206.650085 315.526375 
L 208.00222 315.621333 
L 209.214867 315.496157 
L 210.312765 315.534183 
L 211.649002 315.311445 
L 212.938278 315.345117 
L 214.187644 315.183998 
L 215.513723 315.13929 
L 216.819619 315.043725 
L 218.042099 315.01161 
L 219.349099 314.905241 
L 220.665869 314.857924 
L 221.955193 314.762011 
L 223.306358 314.715269 
L 224.651334 314.625196 
L 226.070739 314.642629 
L 227.402991 314.538231 
L 228.776282 314.52246 
L 230.129476 314.45611 
L 231.571534 314.442408 
L 232.826159 314.384663 
L 234.093943 314.439299 
L 235.366075 314.425223 
L 236.85466 314.427495 
L 238.132111 314.363662 
L 239.400346 314.322331 
L 240.618364 314.35064 
L 241.916516 314.436108 
L 243.125957 314.40191 
L 244.411918 314.413683 
L 245.637564 314.416719 
L 247.155664 314.337757 
L 248.349148 314.291068 
L 249.618923 314.262324 
L 250.713032 314.350905 
L 252.029249 314.192482 
L 253.186844 314.298067 
L 254.496175 314.235816 
L 255.636647 314.142647 
L 256.917865 314.264266 
L 258.104529 314.272308 
L 259.229691 314.228127 
L 260.389702 314.186467 
L 261.474929 314.37675 
" style="fill:none;stroke:#000000;stroke-linecap:square;"/>
   </g>
   <g id="line2d_12">
    <path clip-path="url(#p66bf9bddcc)" d="M 261.311532 245.1314 
L 260.095743 244.821535 
L 258.834738 244.65097 
L 257.658098 244.210787 
L 256.439201 244.060931 
L 255.213828 243.790283 
L 254.003898 243.500823 
L 252.754767 243.400296 
L 251.432103 242.97728 
L 250.181822 242.889464 
L 248.885048 242.568443 
L 247.682385 242.419179 
L 246.405902 242.0689 
L 245.124218 241.900994 
L 243.859341 241.607536 
L 242.589614 241.489015 
L 241.23398 241.112717 
L 239.98096 240.988565 
L 238.751342 240.733483 
L 237.501493 240.531989 
L 236.300226 240.317532 
L 235.035911 240.111035 
L 233.814081 239.940734 
L 232.61472 239.653473 
L 231.288882 239.459596 
L 230.062098 239.279557 
L 228.803127 239.191239 
L 227.525629 239.008704 
L 226.18018 238.916756 
L 224.894964 238.772643 
L 223.691491 238.766491 
L 222.425077 238.70419 
L 221.206898 238.695915 
L 220.028904 238.694081 
L 218.730369 238.732119 
L 217.52746 238.860475 
L 216.208887 239.026284 
L 214.917138 239.183493 
L 213.664731 239.316562 
L 212.380894 239.550557 
L 210.956908 239.853842 
L 209.668141 240.088188 
L 208.29347 240.380148 
L 207.082495 240.678176 
L 205.827242 241.166607 
L 204.636487 241.513776 
L 203.187429 242.086111 
L 201.783022 242.661333 
L 200.692894 243.549868 
L 199.722784 245.29914 
L 199.593512 245.368882 
L 201.002896 246.374047 
L 202.007453 246.714252 
L 203.398379 246.973895 
L 204.622945 247.205634 
L 205.843312 247.379784 
L 207.070985 247.48182 
L 208.430312 247.659021 
L 209.681994 247.735207 
L 210.864851 247.837135 
L 212.199938 247.818483 
L 213.454457 247.964382 
L 214.644829 247.946453 
L 215.912296 248.007228 
L 217.159026 247.936391 
L 218.363961 247.979209 
L 219.630686 247.913928 
L 220.982568 247.905194 
L 222.245237 247.802329 
L 223.5523 247.789827 
L 224.849475 247.680766 
L 226.240547 247.672677 
L 227.554744 247.532404 
L 228.857819 247.472279 
L 230.181776 247.33633 
L 231.583781 247.238647 
L 232.854647 247.110594 
L 234.15099 247.06039 
L 235.461712 246.92611 
L 236.938438 246.808533 
L 238.222496 246.666556 
L 239.466032 246.549414 
L 240.70155 246.466387 
L 241.960027 246.415731 
L 243.172592 246.269999 
L 244.458385 246.213193 
L 245.676073 246.133851 
L 247.144653 246.004335 
L 248.319074 245.920854 
L 249.558459 245.833937 
L 250.659619 245.854695 
L 251.949607 245.676403 
L 253.085084 245.710292 
L 254.372373 245.587155 
L 255.513787 245.498914 
L 256.775607 245.54623 
L 257.961326 245.527041 
L 259.108044 245.497018 
L 260.275664 245.455786 
L 261.390585 245.737536 
" style="fill:none;stroke:#000000;stroke-linecap:square;"/>
   </g>
   <g id="line2d_13">
    <path clip-path="url(#p66bf9bddcc)" d="M 261.316095 176.561225 
L 260.109821 176.287181 
L 258.849646 176.147839 
L 257.687208 175.739819 
L 256.470597 175.616429 
L 255.263113 175.358075 
L 254.070772 175.104737 
L 252.842189 174.917985 
L 251.577488 174.567847 
L 250.339774 174.411288 
L 249.098289 174.094695 
L 247.883379 173.898134 
L 246.639262 173.552517 
L 245.360966 173.34351 
L 244.133705 173.052543 
L 242.895362 172.908173 
L 241.542535 172.533834 
L 240.279307 172.388535 
L 239.022773 172.140145 
L 237.712251 171.915998 
L 236.396917 171.683835 
L 235.069171 171.473939 
L 233.75234 171.29848 
L 232.51804 171.02689 
L 231.126747 170.826144 
L 229.926481 170.671762 
L 228.680844 170.593859 
L 227.450817 170.453639 
L 226.14688 170.366246 
L 224.90247 170.258544 
L 223.689175 170.243136 
L 222.40803 170.215979 
L 221.13228 170.223829 
L 219.930149 170.269827 
L 218.581163 170.338567 
L 217.381954 170.508299 
L 216.055542 170.69778 
L 214.790902 170.896211 
L 213.558797 171.069585 
L 212.361914 171.355333 
L 211.003209 171.651679 
L 209.769999 171.938722 
L 208.444304 172.253175 
L 207.2563 172.582946 
L 206.043345 173.059389 
L 204.883059 173.389927 
L 203.456094 173.951429 
L 202.089105 174.483574 
L 201.008151 175.295651 
L 200.056031 176.978636 
L 199.92622 176.892251 
L 201.318464 177.93775 
L 202.373967 178.300419 
L 203.736926 178.638945 
L 204.967702 178.891037 
L 206.140602 179.172268 
L 207.364653 179.329231 
L 208.699045 179.528864 
L 209.952568 179.674541 
L 211.201899 179.84708 
L 212.506973 179.92202 
L 213.714893 180.088523 
L 214.892246 180.138092 
L 216.170322 180.252779 
L 217.414487 180.234833 
L 218.618546 180.328648 
L 219.850745 180.324672 
L 221.185232 180.340179 
L 222.379374 180.290362 
L 223.647865 180.266758 
L 224.897292 180.187788 
L 226.271473 180.141208 
L 227.522586 179.992154 
L 228.78052 179.904224 
L 230.08068 179.738344 
L 231.445384 179.619433 
L 232.709267 179.451399 
L 234.01289 179.358223 
L 235.302897 179.184965 
L 236.726898 179.039883 
L 237.979967 178.84765 
L 239.249794 178.692993 
L 240.519555 178.545492 
L 241.785913 178.41601 
L 242.99426 178.220764 
L 244.296734 178.088205 
L 245.509779 177.965119 
L 246.930523 177.774887 
L 248.10953 177.640921 
L 249.339557 177.509532 
L 250.468921 177.435905 
L 251.743561 177.233394 
L 252.898544 177.199484 
L 254.19789 177.07148 
L 255.370584 176.920823 
L 256.656191 176.965859 
L 257.8827 176.901776 
L 259.07895 176.899626 
L 260.261705 176.832301 
L 261.39101 177.154672 
" style="fill:none;stroke:#000000;stroke-linecap:square;"/>
   </g>
   <g id="line2d_14">
    <path clip-path="url(#p66bf9bddcc)" d="M 261.308267 107.990148 
L 260.122161 107.695605 
L 258.890802 107.618007 
L 257.765286 107.112585 
L 256.586507 106.993406 
L 255.429916 106.687563 
L 254.29151 106.44536 
L 253.107143 106.151427 
L 251.923877 105.853682 
L 250.674568 105.63493 
L 249.466098 105.300204 
L 248.173898 105.075889 
L 246.95317 104.718506 
L 245.622127 104.527873 
L 244.398491 104.20441 
L 243.131072 104.06679 
L 241.789974 103.682543 
L 240.517366 103.549274 
L 239.263664 103.324199 
L 237.958637 103.100537 
L 236.587771 102.90361 
L 235.245054 102.721724 
L 233.866613 102.582291 
L 232.64313 102.358001 
L 231.214284 102.196983 
L 230.01322 102.097307 
L 228.732735 102.058106 
L 227.534682 101.985155 
L 226.243659 101.937153 
L 225.013725 101.887352 
L 223.770814 101.884101 
L 222.471462 101.921357 
L 221.183216 101.952743 
L 219.996034 102.032846 
L 218.639987 102.095566 
L 217.487345 102.263546 
L 216.11936 102.452327 
L 214.865797 102.640073 
L 213.605258 102.815569 
L 212.443254 103.094296 
L 211.07308 103.360174 
L 209.862421 103.625607 
L 208.551572 103.920467 
L 207.355175 104.244879 
L 206.125247 104.669036 
L 204.939451 104.947619 
L 203.472937 105.468658 
L 202.111157 105.937949 
L 201.004907 106.750566 
L 200.019297 108.494484 
L 199.867707 108.438481 
L 201.258016 109.670621 
L 202.388781 110.113707 
L 203.761811 110.503494 
L 205.041996 110.751342 
L 206.214983 111.106419 
L 207.461381 111.263454 
L 208.799354 111.471894 
L 210.05889 111.655346 
L 211.336843 111.835897 
L 212.625333 111.968066 
L 213.831048 112.12877 
L 214.99713 112.217606 
L 216.300029 112.352807 
L 217.540747 112.375556 
L 218.775969 112.516968 
L 219.977714 112.533549 
L 221.350449 112.592557 
L 222.498709 112.585448 
L 223.783984 112.616675 
L 225.016962 112.60769 
L 226.398489 112.60168 
L 227.616526 112.502641 
L 228.875895 112.466271 
L 230.167147 112.35433 
L 231.525424 112.266321 
L 232.757026 112.114778 
L 234.065567 112.063917 
L 235.333098 111.91141 
L 236.715191 111.76938 
L 237.896457 111.523455 
L 239.190343 111.338677 
L 240.465657 111.15133 
L 241.733456 110.987443 
L 242.84257 110.725826 
L 244.148323 110.550266 
L 245.34353 110.378141 
L 246.725817 110.10532 
L 247.904973 109.889241 
L 249.124257 109.726673 
L 250.292566 109.537865 
L 251.538755 109.30045 
L 252.711032 109.137538 
L 254.002405 108.958992 
L 255.217825 108.695033 
L 256.513022 108.694126 
L 257.768998 108.54926 
L 258.997082 108.465141 
L 260.177592 108.339113 
L 261.314398 108.490452 
" style="fill:none;stroke:#000000;stroke-linecap:square;"/>
   </g>
   <g id="line2d_15">
    <path clip-path="url(#p66bf9bddcc)" d="M 261.357173 39.402251 
L 260.175299 39.075963 
L 258.927081 38.942186 
L 257.77855 38.432174 
L 256.57962 38.294358 
L 255.404049 38.009213 
L 254.273445 37.738486 
L 253.097624 37.5214 
L 251.952228 37.263906 
L 250.748016 37.055663 
L 249.573911 36.818333 
L 248.343572 36.626421 
L 247.132961 36.344629 
L 245.859724 36.228329 
L 244.622498 35.964001 
L 243.400675 35.87846 
L 242.040894 35.580964 
L 240.779007 35.509586 
L 239.461707 35.349871 
L 238.178177 35.183568 
L 236.737109 35.05439 
L 235.4489 34.920226 
L 234.036133 34.823982 
L 232.912889 34.688727 
L 231.466012 34.553392 
L 230.264069 34.509712 
L 228.992924 34.466919 
L 227.818318 34.428381 
L 226.592161 34.354724 
L 225.370271 34.301057 
L 224.120056 34.266914 
L 222.819179 34.278165 
L 221.548008 34.250237 
L 220.339707 34.284306 
L 218.972003 34.260413 
L 217.740386 34.298914 
L 216.319669 34.335701 
L 215.01772 34.411723 
L 213.708003 34.475698 
L 212.535514 34.63073 
L 211.270701 34.804661 
L 210.10419 34.934369 
L 208.905796 35.149477 
L 207.682117 35.365401 
L 206.536521 35.694122 
L 205.307951 35.837577 
L 203.85772 36.33224 
L 202.450651 36.792093 
L 201.28343 37.684984 
L 200.227526 39.700373 
L 200.056734 39.501275 
L 201.443652 41.445636 
L 202.594853 42.054432 
L 203.90911 42.807958 
L 205.12742 43.143313 
L 206.296687 43.732552 
L 207.475737 43.988286 
L 208.836322 44.246546 
L 210.092296 44.482622 
L 211.40229 44.68639 
L 212.654572 44.851487 
L 213.855662 44.962383 
L 214.965601 45.061769 
L 216.215261 45.204059 
L 217.366435 45.213425 
L 218.629881 45.332713 
L 219.814527 45.298578 
L 221.190949 45.299687 
L 222.312109 45.278738 
L 223.596062 45.255052 
L 224.799769 45.250879 
L 226.077127 45.161629 
L 227.252194 45.057227 
L 228.48368 44.997263 
L 229.756495 44.881645 
L 231.100018 44.765728 
L 232.309731 44.615445 
L 233.60406 44.559394 
L 234.862653 44.404134 
L 236.226577 44.314751 
L 237.337526 44.06048 
L 238.668767 43.942013 
L 239.927751 43.780722 
L 241.235894 43.683519 
L 242.240946 43.415984 
L 243.588495 43.275875 
L 244.766843 43.110648 
L 246.156407 42.835452 
L 247.369486 42.603238 
L 248.643438 42.486165 
L 249.885437 42.277772 
L 251.117909 42.071399 
L 252.338072 41.819226 
L 253.602427 41.632251 
L 254.87926 41.248871 
L 256.191967 41.170709 
L 257.526722 40.867853 
L 258.837254 40.598421 
L 260.077034 40.257159 
L 261.259149 40.126972 
" style="fill:none;stroke:#000000;stroke-linecap:square;"/>
   </g>
   <g id="line2d_16">
    <path clip-path="url(#p66bf9bddcc)" d="M 343.552246 313.728385 
L 342.367889 313.480375 
L 341.101066 313.361293 
L 339.887444 312.960757 
L 338.60898 312.831995 
L 337.322826 312.667787 
L 336.055705 312.43489 
L 334.780833 312.475002 
L 333.407317 312.04122 
L 332.11301 312.054806 
L 330.763101 311.748216 
L 329.533666 311.660059 
L 328.213329 311.308976 
L 326.909936 311.223351 
L 325.607209 310.927693 
L 324.352309 310.863372 
L 322.961066 310.477943 
L 321.721051 310.395722 
L 320.420432 310.156515 
L 319.195493 309.992459 
L 317.969375 309.773622 
L 316.789612 309.577032 
L 315.49927 309.404867 
L 314.387517 309.157899 
L 313.094279 308.973675 
L 311.880539 308.817981 
L 310.639533 308.706346 
L 309.32727 308.533346 
L 308.067517 308.466795 
L 306.676936 308.263725 
L 305.51595 308.259093 
L 304.158427 308.099051 
L 303.035422 308.03578 
L 301.822493 307.875398 
L 300.661125 307.876232 
L 299.37911 307.855115 
L 298.088288 307.922591 
L 296.693029 307.905542 
L 295.464886 307.922116 
L 294.022486 307.975136 
L 292.585215 308.235472 
L 291.217753 308.244571 
L 289.857266 308.450163 
L 288.588108 308.592231 
L 287.362587 309.015306 
L 286.158899 309.358899 
L 284.75599 309.896609 
L 283.372459 310.486827 
L 282.172056 311.492706 
L 281.142624 313.3831 
L 280.992408 313.729071 
L 282.449314 314.933714 
L 283.466861 315.323873 
L 284.826999 315.47168 
L 286.036345 315.623056 
L 287.300881 315.691946 
L 288.522166 315.647225 
L 289.820207 315.818182 
L 291.029838 315.712172 
L 292.16384 315.795573 
L 293.502432 315.609337 
L 294.81206 315.71515 
L 296.049674 315.570197 
L 297.371777 315.544722 
L 298.656623 315.475808 
L 299.905117 315.450759 
L 301.223063 315.343731 
L 302.578096 315.288565 
L 303.945914 315.17184 
L 305.273298 315.127131 
L 306.661256 315.014192 
L 308.022607 314.9987 
L 309.384433 314.861822 
L 310.719119 314.807254 
L 312.083574 314.702393 
L 313.478576 314.614165 
L 314.759554 314.53134 
L 316.028671 314.495336 
L 317.357883 314.431724 
L 318.856664 314.357835 
L 320.141057 314.241681 
L 321.389123 314.129902 
L 322.598897 314.127263 
L 323.870965 314.140544 
L 325.097068 314.062017 
L 326.390016 314.029069 
L 327.63691 313.97858 
L 329.173206 313.916028 
L 330.385164 313.846635 
L 331.669524 313.857458 
L 332.790096 313.899959 
L 334.143667 313.777282 
L 335.320713 313.859984 
L 336.639758 313.898027 
L 337.786261 313.795952 
L 339.052828 313.96173 
L 340.248969 314.003952 
L 341.37607 314.033299 
L 342.553748 314.043051 
L 343.655566 314.333198 
" style="fill:none;stroke:#000000;stroke-linecap:square;"/>
   </g>
   <g id="line2d_17">
    <path clip-path="url(#p66bf9bddcc)" d="M 343.502633 245.145676 
L 342.33135 244.85757 
L 341.103891 244.793601 
L 339.951935 244.277714 
L 338.738749 244.191629 
L 337.533599 243.955864 
L 336.3599 243.745476 
L 335.161905 243.63336 
L 333.923845 243.297519 
L 332.651419 243.23175 
L 331.402449 242.923191 
L 330.140952 242.791457 
L 328.907173 242.461324 
L 327.572801 242.330779 
L 326.310166 242.022593 
L 325.020427 241.940455 
L 323.645492 241.543625 
L 322.38685 241.452484 
L 321.111167 241.224768 
L 319.8826 241.055786 
L 318.585892 240.845587 
L 317.368228 240.679771 
L 316.03976 240.537646 
L 314.89382 240.320607 
L 313.549765 240.171271 
L 312.351427 240.049384 
L 311.101455 239.978545 
L 309.834542 239.854931 
L 308.573001 239.804719 
L 307.256979 239.652551 
L 306.098625 239.650615 
L 304.778987 239.536249 
L 303.641392 239.522669 
L 302.444711 239.441386 
L 301.231644 239.464053 
L 299.955983 239.514739 
L 298.596973 239.63155 
L 297.201852 239.692168 
L 295.934854 239.78868 
L 294.591701 239.925425 
L 293.090937 240.196964 
L 291.734845 240.327773 
L 290.333286 240.571852 
L 289.070786 240.768208 
L 287.779391 241.221263 
L 286.595176 241.56073 
L 285.135501 242.106234 
L 283.733086 242.594676 
L 282.512023 243.418624 
L 281.46926 245.004881 
L 281.273711 245.120256 
L 282.671245 246.196575 
L 283.722056 246.502459 
L 285.119276 246.741448 
L 286.377099 246.955344 
L 287.580198 247.170139 
L 288.793044 247.272522 
L 290.077549 247.490095 
L 291.319701 247.54338 
L 292.522986 247.684504 
L 293.855169 247.67019 
L 295.133592 247.852038 
L 296.334998 247.793578 
L 297.634496 247.895054 
L 298.896914 247.849501 
L 300.128727 247.912441 
L 301.399124 247.858621 
L 302.779833 247.86025 
L 304.06565 247.786869 
L 305.379244 247.792308 
L 306.691633 247.718135 
L 308.09763 247.725457 
L 309.42542 247.614378 
L 310.747345 247.574709 
L 312.097937 247.484134 
L 313.493924 247.403645 
L 314.798975 247.316658 
L 316.101359 247.262741 
L 317.454466 247.168723 
L 318.946733 247.046857 
L 320.226209 246.89241 
L 321.478958 246.769992 
L 322.700892 246.686774 
L 323.975227 246.614871 
L 325.189356 246.454794 
L 326.500666 246.383376 
L 327.725765 246.267385 
L 329.215925 246.126931 
L 330.394779 246.002254 
L 331.651723 245.894518 
L 332.781177 245.869948 
L 334.120748 245.674245 
L 335.279911 245.684964 
L 336.575058 245.578295 
L 337.716197 245.447032 
L 338.951815 245.473138 
L 340.128045 245.475041 
L 341.259285 245.421052 
L 342.4178 245.402735 
L 343.541171 245.668469 
" style="fill:none;stroke:#000000;stroke-linecap:square;"/>
   </g>
   <g id="line2d_18">
    <path clip-path="url(#p66bf9bddcc)" d="M 343.491737 176.563978 
L 342.326507 176.305586 
L 341.098553 176.27415 
L 339.959957 175.762311 
L 338.750009 175.713626 
L 337.566993 175.487741 
L 336.417289 175.29613 
L 335.253098 175.110673 
L 334.086066 174.867878 
L 332.827387 174.736703 
L 331.620026 174.477634 
L 330.306233 174.324844 
L 329.100692 174.01049 
L 327.753951 173.864945 
L 326.516963 173.555516 
L 325.253665 173.472695 
L 323.886495 173.099692 
L 322.615588 173.000316 
L 321.31814 172.771933 
L 320.053717 172.58971 
L 318.636112 172.390638 
L 317.338988 172.228687 
L 315.881619 172.084836 
L 314.665994 171.874782 
L 313.223122 171.72307 
L 311.993672 171.601038 
L 310.726151 171.524244 
L 309.500652 171.423022 
L 308.264012 171.366997 
L 306.973252 171.237765 
L 305.792594 171.22161 
L 304.449438 171.139567 
L 303.263421 171.155379 
L 302.043627 171.124714 
L 300.786739 171.163886 
L 299.568726 171.257007 
L 298.25304 171.376449 
L 296.943765 171.490842 
L 295.740063 171.59733 
L 294.521299 171.807317 
L 293.109955 172.074025 
L 291.827642 172.263779 
L 290.470253 172.522303 
L 289.262563 172.790878 
L 287.988121 173.235367 
L 286.813619 173.573716 
L 285.331671 174.051366 
L 283.967226 174.550717 
L 282.774141 175.275478 
L 281.756622 176.831929 
L 281.574388 176.854907 
L 282.952802 177.917391 
L 284.041555 178.229669 
L 285.460314 178.511234 
L 286.760645 178.729877 
L 287.975677 178.943813 
L 289.239926 179.064577 
L 290.598766 179.2544 
L 291.905136 179.356638 
L 293.191812 179.514082 
L 294.525427 179.5625 
L 295.794234 179.733388 
L 297.025606 179.740353 
L 298.377752 179.864144 
L 299.66288 179.837404 
L 300.913991 179.936242 
L 302.166582 179.932509 
L 303.546823 179.977448 
L 304.753447 179.953331 
L 306.051245 179.984236 
L 307.324149 179.941978 
L 308.754692 179.964226 
L 310.025119 179.880827 
L 311.324538 179.848853 
L 312.645159 179.764219 
L 314.003341 179.68149 
L 315.264238 179.590947 
L 316.565033 179.543196 
L 317.872595 179.437506 
L 319.269265 179.307146 
L 320.490682 179.126816 
L 321.740162 178.992723 
L 322.968626 178.880475 
L 324.21846 178.734754 
L 325.383832 178.543948 
L 326.671989 178.39807 
L 327.855351 178.264009 
L 329.240716 178.05182 
L 330.383638 177.892471 
L 331.583933 177.727771 
L 332.720884 177.60488 
L 334.013352 177.374451 
L 335.151549 177.30727 
L 336.415778 177.143783 
L 337.557322 176.959452 
L 338.783165 176.951051 
L 339.956272 176.90082 
L 341.105559 176.832297 
L 342.268515 176.764695 
L 343.422488 176.999749 
" style="fill:none;stroke:#000000;stroke-linecap:square;"/>
   </g>
   <g id="line2d_19">
    <path clip-path="url(#p66bf9bddcc)" d="M 343.514932 107.990107 
L 342.350074 107.748082 
L 341.116637 107.73315 
L 339.960862 107.240449 
L 338.749231 107.177571 
L 337.543992 106.956739 
L 336.406785 106.748948 
L 335.226162 106.640465 
L 334.073659 106.364578 
L 332.841257 106.248838 
L 331.665407 105.99843 
L 330.404074 105.882077 
L 329.195027 105.636261 
L 327.885406 105.526324 
L 326.625711 105.266822 
L 325.387424 105.198772 
L 323.9809 104.918591 
L 322.72874 104.823558 
L 321.369674 104.647579 
L 320.130527 104.483434 
L 318.614403 104.336473 
L 317.346555 104.202911 
L 315.813356 104.072275 
L 314.697222 103.899616 
L 313.193036 103.751745 
L 311.993118 103.6679 
L 310.701222 103.602363 
L 309.543234 103.528356 
L 308.351419 103.466369 
L 307.06408 103.346286 
L 305.884993 103.316109 
L 304.50367 103.254145 
L 303.320025 103.239033 
L 302.103684 103.199696 
L 300.853498 103.181556 
L 299.634121 103.205706 
L 298.325073 103.273657 
L 296.987514 103.334296 
L 295.759193 103.371445 
L 294.518008 103.522762 
L 293.202614 103.697695 
L 291.959772 103.823701 
L 290.691358 104.026503 
L 289.482218 104.262707 
L 288.232588 104.642494 
L 287.022409 104.873192 
L 285.527606 105.304619 
L 284.138142 105.760359 
L 282.866138 106.502328 
L 281.77695 108.241437 
L 281.57709 108.198536 
L 282.996285 109.567813 
L 284.116723 110.012413 
L 285.48662 110.462735 
L 286.736983 110.729104 
L 287.893613 111.091342 
L 289.099833 111.287468 
L 290.453702 111.515347 
L 291.710945 111.66157 
L 293.051512 111.858175 
L 294.386109 111.952322 
L 295.651229 112.104465 
L 296.838894 112.109998 
L 298.162513 112.249316 
L 299.427582 112.229295 
L 300.685229 112.331146 
L 301.918441 112.300872 
L 303.30812 112.324372 
L 304.48304 112.288036 
L 305.768014 112.275399 
L 307.011682 112.243534 
L 308.387935 112.196501 
L 309.629271 112.096697 
L 310.889489 112.033632 
L 312.196414 111.901841 
L 313.55329 111.775616 
L 314.823361 111.652717 
L 316.131973 111.568269 
L 317.421031 111.423433 
L 318.823806 111.272643 
L 320.025475 111.039357 
L 321.312593 110.868461 
L 322.581204 110.71476 
L 323.844119 110.532795 
L 325.000404 110.309847 
L 326.303279 110.141542 
L 327.512996 109.992839 
L 328.886111 109.751358 
L 330.064411 109.572336 
L 331.281041 109.415784 
L 332.452573 109.265579 
L 333.720606 109.048659 
L 334.878533 108.935716 
L 336.167304 108.789421 
L 337.352282 108.577478 
L 338.641797 108.578826 
L 339.889718 108.490798 
L 341.116105 108.400937 
L 342.320689 108.262589 
L 343.487985 108.483285 
" style="fill:none;stroke:#000000;stroke-linecap:square;"/>
   </g>
   <g id="line2d_20">
    <path clip-path="url(#p66bf9bddcc)" d="M 343.563458 39.447051 
L 342.436115 39.205174 
L 341.228806 39.222704 
L 340.104028 38.697523 
L 338.909193 38.637926 
L 337.727118 38.429192 
L 336.615116 38.210221 
L 335.469834 38.007955 
L 334.389826 37.803545 
L 333.162446 37.618668 
L 332.021855 37.414723 
L 330.726044 37.242656 
L 329.569372 37.005705 
L 328.255076 36.923517 
L 327.03169 36.662054 
L 325.783449 36.620038 
L 324.390795 36.367207 
L 323.058814 36.316106 
L 321.632848 36.196124 
L 320.345744 36.063948 
L 318.748597 35.978653 
L 317.446969 35.903594 
L 315.856958 35.835684 
L 314.794519 35.762359 
L 313.282444 35.680453 
L 312.093122 35.679952 
L 310.786094 35.654187 
L 309.661403 35.645152 
L 308.540647 35.629187 
L 307.334535 35.579858 
L 306.214682 35.597183 
L 304.938273 35.584447 
L 303.883488 35.622459 
L 302.72472 35.602881 
L 301.542307 35.568185 
L 300.296586 35.532182 
L 298.855501 35.478498 
L 297.450815 35.496329 
L 296.088711 35.482576 
L 294.873284 35.574926 
L 293.483852 35.682817 
L 292.348545 35.762528 
L 291.126744 35.911028 
L 289.900146 36.122054 
L 288.669124 36.382806 
L 287.460971 36.462519 
L 285.93316 36.845669 
L 284.567237 37.182354 
L 283.255803 37.905046 
L 282.10496 39.545369 
L 281.918518 39.337537 
L 283.321716 41.132713 
L 284.49313 41.694807 
L 285.820819 42.40614 
L 287.063311 42.676651 
L 288.204698 43.204983 
L 289.411401 43.465052 
L 290.766059 43.769428 
L 292.037649 43.980903 
L 293.394983 44.200896 
L 294.684 44.358209 
L 295.938435 44.491782 
L 297.10752 44.550618 
L 298.410738 44.686135 
L 299.621343 44.701248 
L 300.901819 44.806141 
L 302.101545 44.782821 
L 303.504153 44.798318 
L 304.634872 44.780525 
L 305.933347 44.77137 
L 307.15721 44.762325 
L 308.499246 44.722742 
L 309.717353 44.643898 
L 310.952447 44.618402 
L 312.23886 44.520841 
L 313.581072 44.438858 
L 314.818325 44.3153 
L 316.137694 44.279963 
L 317.421429 44.157594 
L 318.850972 44.077487 
L 319.994199 43.830804 
L 321.338993 43.719763 
L 322.596391 43.572137 
L 323.883573 43.434159 
L 324.922697 43.188595 
L 326.219598 43.028688 
L 327.375898 42.860382 
L 328.718124 42.603915 
L 329.88131 42.369701 
L 331.116984 42.249005 
L 332.324893 42.002975 
L 333.54858 41.785338 
L 334.720589 41.527632 
L 335.947772 41.34511 
L 337.163594 40.956906 
L 338.418539 40.855381 
L 339.692279 40.560042 
L 340.964169 40.290506 
L 342.188597 40.009591 
L 343.382096 39.890673 
" style="fill:none;stroke:#000000;stroke-linecap:square;"/>
   </g>
   <g id="line2d_21">
    <path clip-path="url(#p66bf9bddcc)" d="M 425.713336 313.790305 
L 424.579654 313.68266 
L 423.351868 313.837706 
L 422.173039 313.482684 
L 420.862105 313.525662 
L 419.579766 313.481472 
L 418.291058 313.391246 
L 417.062509 313.413158 
L 415.783971 313.171694 
L 414.507517 313.161855 
L 413.242559 312.959599 
L 411.961691 312.886038 
L 410.735126 312.531327 
L 409.419798 312.460054 
L 408.177417 312.169306 
L 406.932258 312.148471 
L 405.577033 311.772316 
L 404.301961 311.741389 
L 402.967482 311.4969 
L 401.716728 311.363089 
L 400.413476 311.147425 
L 399.196705 310.936984 
L 397.789083 310.727797 
L 396.665679 310.479966 
L 395.362282 310.303708 
L 394.12757 310.125972 
L 392.905493 309.929922 
L 391.652042 309.762532 
L 390.526534 309.680917 
L 389.122261 309.451022 
L 388.015083 309.398159 
L 386.598348 309.188246 
L 385.503439 309.176111 
L 384.249544 308.926087 
L 383.034081 308.927129 
L 381.677861 308.769451 
L 380.306348 308.811578 
L 378.768832 308.754269 
L 377.469141 308.748071 
L 376.072084 308.76695 
L 374.602722 309.06314 
L 373.204069 308.992274 
L 371.875718 309.200011 
L 370.638438 309.330283 
L 369.365782 309.812835 
L 368.130546 310.122377 
L 366.680054 310.608309 
L 365.334541 311.008486 
L 364.114229 311.775775 
L 363.068802 313.386933 
L 362.866714 313.685098 
L 364.27188 314.784664 
L 365.333993 315.05139 
L 366.643072 315.135076 
L 367.879478 315.186583 
L 369.134889 315.345982 
L 370.352657 315.250473 
L 371.616044 315.453258 
L 372.838319 315.310169 
L 374.020778 315.405596 
L 375.352307 315.296279 
L 376.656958 315.449258 
L 377.889707 315.321047 
L 379.253568 315.332363 
L 380.545328 315.303866 
L 381.845053 315.276166 
L 383.166141 315.184025 
L 384.557951 315.162889 
L 385.940971 315.078216 
L 387.301362 315.107429 
L 388.734945 315.032158 
L 390.162223 315.085566 
L 391.610058 315.01021 
L 392.988792 314.995944 
L 394.426644 314.971539 
L 395.810345 314.929057 
L 397.128905 314.909039 
L 398.401219 314.882716 
L 399.773869 314.891827 
L 401.299243 314.867201 
L 402.580525 314.815192 
L 403.881907 314.8005 
L 405.060736 314.840593 
L 406.389616 314.924023 
L 407.586722 314.887728 
L 408.920233 314.878777 
L 410.141483 314.840818 
L 411.666701 314.806203 
L 412.854604 314.729476 
L 414.139091 314.769579 
L 415.280858 314.761479 
L 416.65458 314.621193 
L 417.815886 314.648696 
L 419.059392 314.62448 
L 420.147583 314.483337 
L 421.319651 314.547882 
L 422.441473 314.54159 
L 423.499396 314.39955 
L 424.638111 314.281743 
L 425.739702 314.354922 
" style="fill:none;stroke:#000000;stroke-linecap:square;"/>
   </g>
   <g id="line2d_22">
    <path clip-path="url(#p66bf9bddcc)" d="M 425.68943 245.186294 
L 424.533145 245.017748 
L 423.285697 245.135594 
L 422.08934 244.686126 
L 420.788314 244.733896 
L 419.516693 244.616096 
L 418.28291 244.517886 
L 417.090312 244.495921 
L 415.87934 244.295673 
L 414.638693 244.291583 
L 413.420236 244.121094 
L 412.135053 244.065438 
L 410.907334 243.79767 
L 409.571485 243.760595 
L 408.293937 243.512726 
L 407.042309 243.516656 
L 405.644 243.200706 
L 404.401421 243.184474 
L 403.045151 242.980194 
L 401.860504 242.874307 
L 400.453184 242.693282 
L 399.265694 242.546383 
L 397.8012 242.38139 
L 396.707247 242.188945 
L 395.356304 242.040051 
L 394.116001 241.914495 
L 392.880945 241.768549 
L 391.642959 241.677825 
L 390.507907 241.606369 
L 389.14456 241.432314 
L 388.017096 241.408128 
L 386.633855 241.227184 
L 385.555079 241.262935 
L 384.319898 241.066379 
L 383.14413 241.096561 
L 381.786229 240.991046 
L 380.450208 241.045272 
L 378.980449 241.042773 
L 377.731678 241.043484 
L 376.388933 241.109061 
L 374.952466 241.356946 
L 373.579109 241.332236 
L 372.268839 241.491537 
L 371.008937 241.569812 
L 369.717816 241.953938 
L 368.504627 242.236483 
L 367.040725 242.608089 
L 365.665473 243.011235 
L 364.378816 243.624744 
L 363.330371 245.102991 
L 363.118779 245.22229 
L 364.502197 246.385066 
L 365.587923 246.70317 
L 366.953242 246.956277 
L 368.189735 247.132305 
L 369.377992 247.352487 
L 370.577424 247.387453 
L 371.848378 247.593905 
L 373.097926 247.546905 
L 374.365958 247.695303 
L 375.729422 247.629422 
L 377.057719 247.786389 
L 378.295943 247.662551 
L 379.639483 247.727984 
L 380.925377 247.671219 
L 382.185796 247.689699 
L 383.476272 247.606702 
L 384.86497 247.579183 
L 386.176013 247.494131 
L 387.514792 247.490682 
L 388.861676 247.421979 
L 390.272076 247.412485 
L 391.62935 247.317687 
L 392.971287 247.270728 
L 394.351947 247.215464 
L 395.714172 247.115381 
L 397.038494 247.048696 
L 398.32721 246.974788 
L 399.708041 246.923437 
L 401.193417 246.830737 
L 402.457985 246.713001 
L 403.716976 246.630543 
L 404.906354 246.614053 
L 406.196253 246.578511 
L 407.396393 246.500001 
L 408.724417 246.433846 
L 409.939145 246.373131 
L 411.408023 246.283694 
L 412.570878 246.201885 
L 413.813108 246.172574 
L 414.938295 246.161093 
L 416.285569 245.992366 
L 417.442003 246.010552 
L 418.716718 245.95943 
L 419.840495 245.768937 
L 421.047915 245.804147 
L 422.219447 245.768753 
L 423.338057 245.640391 
L 424.514507 245.527369 
L 425.663731 245.679473 
" style="fill:none;stroke:#000000;stroke-linecap:square;"/>
   </g>
   <g id="line2d_23">
    <path clip-path="url(#p66bf9bddcc)" d="M 425.647653 176.591049 
L 424.488148 176.438467 
L 423.24692 176.561936 
L 422.075459 176.08013 
L 420.803171 176.169484 
L 419.567534 176.004373 
L 418.376723 175.934472 
L 417.241433 175.842752 
L 416.134139 175.718308 
L 414.967647 175.707364 
L 413.846167 175.533283 
L 412.607601 175.486723 
L 411.477105 175.276662 
L 410.176935 175.241613 
L 408.935328 175.017934 
L 407.696594 175.046879 
L 406.306416 174.79068 
L 405.033837 174.799157 
L 403.656174 174.640685 
L 402.4771 174.574957 
L 401.022113 174.442233 
L 399.846326 174.345263 
L 398.334878 174.209119 
L 397.292251 174.059442 
L 395.892844 173.935685 
L 394.663361 173.840425 
L 393.396705 173.71995 
L 392.197276 173.662223 
L 391.061316 173.592479 
L 389.731222 173.443238 
L 388.625168 173.422254 
L 387.234693 173.253051 
L 386.167187 173.288459 
L 384.934225 173.099047 
L 383.773754 173.114168 
L 382.365643 172.982566 
L 380.99843 172.998861 
L 379.482313 172.995186 
L 378.215401 173.005683 
L 376.861081 173.060222 
L 375.397288 173.207505 
L 374.023181 173.18765 
L 372.713065 173.28123 
L 371.439866 173.350464 
L 370.099102 173.626744 
L 368.878668 173.856175 
L 367.374381 174.105672 
L 365.960408 174.481865 
L 364.587952 175.002695 
L 363.496276 176.385146 
L 363.226149 176.405607 
L 364.554173 177.561732 
L 365.623997 177.88362 
L 366.974345 178.171949 
L 368.17362 178.369259 
L 369.308217 178.64989 
L 370.459146 178.74982 
L 371.689366 178.954236 
L 372.919392 178.983159 
L 374.21868 179.164245 
L 375.566394 179.192609 
L 376.872442 179.375076 
L 378.092359 179.316357 
L 379.410248 179.435546 
L 380.680597 179.44572 
L 381.922718 179.53475 
L 383.195246 179.528961 
L 384.568006 179.55395 
L 385.834109 179.530412 
L 387.126818 179.55916 
L 388.407556 179.53397 
L 389.810477 179.542628 
L 391.116056 179.471024 
L 392.444762 179.454097 
L 393.807683 179.406341 
L 395.181097 179.316404 
L 396.499497 179.26297 
L 397.808861 179.212915 
L 399.157668 179.160021 
L 400.629312 179.067944 
L 401.862715 178.918484 
L 403.166425 178.826663 
L 404.396206 178.773167 
L 405.71858 178.674582 
L 406.920283 178.563424 
L 408.284393 178.459034 
L 409.515332 178.38449 
L 410.96568 178.246583 
L 412.140905 178.150929 
L 413.375194 178.071359 
L 414.529927 178.009519 
L 415.863781 177.808496 
L 417.030634 177.759055 
L 418.313702 177.647499 
L 419.468725 177.410889 
L 420.697245 177.386932 
L 421.90905 177.309993 
L 423.089639 177.116173 
L 424.305294 176.94324 
L 425.516772 177.022804 
" style="fill:none;stroke:#000000;stroke-linecap:square;"/>
   </g>
   <g id="line2d_24">
    <path clip-path="url(#p66bf9bddcc)" d="M 425.675892 108.016624 
L 424.532401 107.874816 
L 423.299712 107.985282 
L 422.135692 107.495812 
L 420.876849 107.57023 
L 419.645412 107.388964 
L 418.480818 107.307478 
L 417.356274 107.180781 
L 416.301854 107.0833 
L 415.137454 107.047572 
L 414.037367 106.908437 
L 412.761796 106.833852 
L 411.64823 106.659675 
L 410.358264 106.637126 
L 409.131412 106.435131 
L 407.919324 106.475783 
L 406.537822 106.26855 
L 405.256664 106.283106 
L 403.829324 106.189037 
L 402.65672 106.143183 
L 401.090171 106.087591 
L 399.87493 106.037715 
L 398.246886 105.950134 
L 397.233495 105.860617 
L 395.770133 105.784668 
L 394.543246 105.735946 
L 393.247829 105.649399 
L 392.099599 105.618006 
L 391.00823 105.560058 
L 389.741622 105.455888 
L 388.649993 105.451452 
L 387.278147 105.33315 
L 386.250557 105.382883 
L 385.022656 105.237766 
L 383.892712 105.220401 
L 382.500204 105.088202 
L 381.10379 105.044098 
L 379.597726 105.008492 
L 378.301681 104.988732 
L 376.989943 105.024776 
L 375.547676 105.108494 
L 374.265804 105.04043 
L 373.012267 105.079889 
L 371.740568 105.137402 
L 370.42772 105.317404 
L 369.235195 105.419208 
L 367.735303 105.642648 
L 366.35292 105.959339 
L 364.928644 106.471269 
L 363.778053 107.86683 
L 363.511031 107.775364 
L 364.876197 109.148403 
L 365.98289 109.533264 
L 367.318964 109.944006 
L 368.524305 110.191107 
L 369.636215 110.512073 
L 370.804875 110.66527 
L 372.104675 110.883724 
L 373.353931 110.963482 
L 374.716282 111.151831 
L 376.054496 111.242443 
L 377.357497 111.402096 
L 378.57654 111.385191 
L 379.922812 111.506934 
L 381.19468 111.515261 
L 382.460098 111.598985 
L 383.712758 111.59179 
L 385.121342 111.612604 
L 386.337456 111.602843 
L 387.640281 111.622353 
L 388.909176 111.600479 
L 390.308486 111.590364 
L 391.585071 111.530597 
L 392.866759 111.507457 
L 394.196337 111.438753 
L 395.535857 111.331082 
L 396.82889 111.268709 
L 398.140547 111.213943 
L 399.472037 111.139564 
L 400.908537 111.04366 
L 402.111707 110.864808 
L 403.426613 110.766349 
L 404.665921 110.686166 
L 405.961712 110.54906 
L 407.103014 110.41336 
L 408.415695 110.289869 
L 409.602552 110.202153 
L 410.969011 110.024056 
L 412.120204 109.89857 
L 413.33622 109.788146 
L 414.50684 109.652292 
L 415.799888 109.445784 
L 416.942061 109.326437 
L 418.192986 109.191402 
L 419.344358 108.915001 
L 420.576064 108.874973 
L 421.792842 108.759919 
L 423.000278 108.547661 
L 424.225287 108.373659 
L 425.452794 108.397773 
" style="fill:none;stroke:#000000;stroke-linecap:square;"/>
   </g>
   <g id="line2d_25">
    <path clip-path="url(#p66bf9bddcc)" d="M 425.781818 39.455068 
L 424.666004 39.348248 
L 423.442405 39.446647 
L 422.262081 38.997246 
L 421.006272 39.023794 
L 419.747333 38.88065 
L 418.593281 38.772298 
L 417.433318 38.721946 
L 416.328958 38.57821 
L 415.132972 38.554534 
L 413.976926 38.438122 
L 412.723373 38.400657 
L 411.514087 38.279884 
L 410.248909 38.294216 
L 408.993551 38.149082 
L 407.807948 38.171425 
L 406.364534 38.042594 
L 405.075916 38.061139 
L 403.508783 38.051832 
L 402.293806 38.024119 
L 400.507394 38.033191 
L 399.215935 38.031949 
L 397.43944 38.009714 
L 396.433412 38.015802 
L 394.902318 37.98897 
L 393.63644 38.050344 
L 392.31641 38.024665 
L 391.217467 38.063581 
L 390.164449 38.025736 
L 389.021563 37.980721 
L 387.958788 38.01812 
L 386.743407 37.973516 
L 385.741771 38.023436 
L 384.602788 37.882373 
L 383.486453 37.81737 
L 382.057899 37.517192 
L 380.5544 37.368249 
L 379.012655 37.235613 
L 377.675585 37.115715 
L 376.386646 37.072241 
L 375.070394 37.080435 
L 373.93452 36.973308 
L 372.892859 36.926839 
L 371.647649 36.950725 
L 370.501675 37.006033 
L 369.386421 36.972277 
L 367.985348 37.172685 
L 366.638317 37.387632 
L 365.230776 37.861723 
L 364.045174 39.350887 
L 363.874525 38.989411 
L 365.256464 41.039938 
L 366.409379 41.579467 
L 367.646857 42.409882 
L 368.768775 42.753746 
L 369.79528 43.284254 
L 370.884423 43.58318 
L 372.18024 43.909062 
L 373.400302 44.03681 
L 374.82072 44.258419 
L 376.153688 44.336784 
L 377.477618 44.413874 
L 378.687775 44.375126 
L 379.991069 44.448189 
L 381.199223 44.398849 
L 382.489738 44.439893 
L 383.737903 44.330585 
L 385.174282 44.290322 
L 386.395869 44.207298 
L 387.706143 44.123204 
L 388.961114 44.063938 
L 390.270171 43.935261 
L 391.540249 43.813223 
L 392.790606 43.719717 
L 394.12318 43.579927 
L 395.473061 43.394957 
L 396.801173 43.257551 
L 398.135834 43.139718 
L 399.480196 42.985479 
L 400.904312 42.871251 
L 402.081108 42.622904 
L 403.395706 42.50734 
L 404.650975 42.370462 
L 405.908775 42.203745 
L 407.013642 42.002659 
L 408.319942 41.86861 
L 409.502068 41.750946 
L 410.853663 41.575281 
L 412.024537 41.422857 
L 413.272826 41.327745 
L 414.479625 41.174089 
L 415.744718 40.975173 
L 416.912111 40.82954 
L 418.162231 40.707839 
L 419.357241 40.443984 
L 420.624135 40.408591 
L 421.893777 40.217251 
L 423.159856 40.036423 
L 424.411912 39.824539 
L 425.622966 39.883839 
" style="fill:none;stroke:#000000;stroke-linecap:square;"/>
   </g>
  </g>
 </g>
 <defs>
  <clipPath id="p66bf9bddcc">
   <rect height="314.64" width="429.84" x="15.48" y="15.48"/>
  </clipPath>
 </defs>
</svg>
