<?xml version="1.0" encoding="utf-8" standalone="no"?>
<!DOCTYPE svg PUBLIC "-//W3C//DTD SVG 1.1//EN"
  "http://www.w3.org/Graphics/SVG/1.1/DTD/svg11.dtd">
<!-- Created with matplotlib (http://matplotlib.org/) -->
<svg height="345pt" version="1.1" viewBox="0 0 460 345" width="460pt" xmlns="http://www.w3.org/2000/svg" xmlns:xlink="http://www.w3.org/1999/xlink">
 <defs>
  <style type="text/css">
*{stroke-linecap:butt;stroke-linejoin:round;}
  </style>
 </defs>
 <g id="figure_1">
  <g id="patch_1">
   <path d="M 0 345.6 
L 460.8 345.6 
L 460.8 0 
L 0 0 
z
" style="fill:#ffffff;"/>
  </g>
  <g id="axes_1">
   <g id="line2d_1">
    <path clip-path="url(#p20bd83fdcc)" d="M 96.530102 313.537423 
L 95.402641 313.104176 
L 94.084809 312.627858 
L 92.572667 312.249611 
L 91.367602 311.822238 
L 89.968356 311.504245 
L 88.997247 311.147321 
L 87.707725 310.948563 
L 86.586882 310.558486 
L 85.276096 310.255626 
L 84.155673 309.986111 
L 82.816887 309.695004 
L 81.388147 309.316949 
L 80.074475 309.033137 
L 79.06143 308.786789 
L 77.715747 308.4788 
L 76.596072 308.21657 
L 75.402198 307.975057 
L 74.38087 307.764127 
L 73.19559 307.431668 
L 72.158939 307.279578 
L 70.71902 307.083564 
L 69.721079 306.940781 
L 68.452717 306.792203 
L 67.239939 306.600122 
L 65.954492 306.382082 
L 64.830591 306.277288 
L 63.553803 306.22459 
L 62.365004 306.095676 
L 61.06625 306.124679 
L 59.687563 306.065152 
L 58.428904 306.162722 
L 56.988439 306.175819 
L 55.58118 306.330067 
L 54.220833 306.302061 
L 52.891727 306.525563 
L 51.335648 306.524929 
L 50.049299 306.698125 
L 48.477834 306.822264 
L 47.045926 306.878838 
L 45.632108 307.139715 
L 44.214709 307.417516 
L 42.861246 307.641842 
L 41.636538 307.94723 
L 40.630828 308.440243 
L 39.623832 308.649198 
L 38.345991 309.402814 
L 37.258272 309.835003 
L 36.355296 311.02588 
L 35.209155 312.906939 
L 35.018182 313.265586 
L 36.435897 313.893662 
L 37.69418 314.112763 
L 39.106499 314.305059 
L 40.176693 314.097414 
L 41.377401 314.10743 
L 42.471058 313.808726 
L 43.783806 313.656851 
L 45.061989 313.42384 
L 46.40339 313.245817 
L 47.522432 313.025137 
L 48.944736 312.818069 
L 50.31185 312.513179 
L 51.573821 312.370523 
L 52.783627 312.172669 
L 54.110195 311.952969 
L 55.280944 311.712361 
L 56.393364 311.555175 
L 57.554723 311.390954 
L 58.613163 311.27203 
L 59.610249 311.122913 
L 60.718385 311.032056 
L 61.907927 310.925447 
L 63.018969 310.828777 
L 64.142274 310.734477 
L 65.186385 310.690236 
L 66.287204 310.608249 
L 67.332845 310.551079 
L 68.279432 310.528267 
L 69.384683 310.52695 
L 70.529927 310.520071 
L 71.831254 310.583083 
L 73.195751 310.623371 
L 74.703476 310.705457 
L 75.976024 310.746185 
L 77.345909 310.661358 
L 78.675993 310.811881 
L 80.050224 310.946337 
L 81.227892 311.123597 
L 82.801842 311.226831 
L 84.250687 311.403659 
L 85.828695 311.56939 
L 87.188169 311.73602 
L 88.667819 311.811573 
L 90.099448 312.019544 
L 91.434049 312.253188 
L 92.806057 312.957101 
L 94.350256 313.396383 
L 95.487224 313.355777 
L 96.698862 313.690678 
" style="fill:none;stroke:#000000;stroke-linecap:square;"/>
   </g>
   <g id="line2d_2">
    <path clip-path="url(#p20bd83fdcc)" d="M 96.511609 245.609361 
L 95.434839 245.410315 
L 94.214136 244.968087 
L 92.799257 244.72429 
L 91.747542 244.395513 
L 90.482264 244.251724 
L 89.502019 244.060366 
L 88.338707 243.970571 
L 87.325264 243.789281 
L 86.145335 243.656575 
L 85.12746 243.537877 
L 83.911833 243.384538 
L 82.621928 243.208284 
L 81.39386 243.044601 
L 80.393193 242.888223 
L 79.204837 242.702536 
L 77.995564 242.53218 
L 76.813997 242.360632 
L 75.752666 242.181787 
L 74.523432 241.940914 
L 73.250169 241.800137 
L 71.648737 241.607512 
L 70.459279 241.432888 
L 68.929969 241.285606 
L 67.490203 241.047504 
L 66.084418 240.800448 
L 64.906467 240.61515 
L 63.476011 240.470561 
L 62.281583 240.248841 
L 60.829652 240.1342 
L 59.467233 239.976562 
L 58.040676 239.922644 
L 56.659655 239.80978 
L 55.179182 239.751013 
L 53.847549 239.612053 
L 52.488907 239.627668 
L 51.061789 239.589733 
L 49.869562 239.670211 
L 48.292337 239.672095 
L 47.068654 239.655102 
L 45.70332 239.798884 
L 44.300662 239.943763 
L 43.072124 240.097996 
L 41.984297 240.334603 
L 41.04487 240.714296 
L 40.129814 241.04214 
L 38.900174 241.605503 
L 37.852864 242.220744 
L 37.006708 243.259348 
L 35.748456 245.033451 
L 35.639018 245.25069 
L 37.0648 245.854968 
L 38.229434 246.105405 
L 39.612644 246.191711 
L 40.734952 246.092509 
L 41.852071 246.171961 
L 42.932152 246.074852 
L 44.286085 246.083578 
L 45.578109 246.073979 
L 46.940512 246.096941 
L 48.077772 246.112108 
L 49.432258 246.066865 
L 50.74296 246.002894 
L 52.015498 245.991424 
L 53.15193 245.965722 
L 54.48365 245.908002 
L 55.692481 245.852904 
L 56.915241 245.83894 
L 58.119492 245.823018 
L 59.264626 245.804312 
L 60.383428 245.796299 
L 61.570827 245.777842 
L 62.77938 245.792845 
L 63.964379 245.761245 
L 65.16626 245.759496 
L 66.318087 245.74407 
L 67.509169 245.721211 
L 68.673192 245.707898 
L 69.808604 245.716888 
L 70.966248 245.694338 
L 72.136357 245.675335 
L 73.347801 245.674213 
L 74.686588 245.66912 
L 76.018693 245.70512 
L 77.276665 245.671977 
L 78.587112 245.601329 
L 79.888845 245.64955 
L 81.224634 245.742902 
L 82.406186 245.764194 
L 83.873756 245.784462 
L 85.279131 245.797952 
L 86.716294 245.812876 
L 88.004371 245.755534 
L 89.33622 245.687264 
L 90.664374 245.547962 
L 91.867004 245.445558 
L 93.129218 245.661138 
L 94.527115 245.560251 
L 95.581765 245.232477 
L 96.714172 245.459335 
" style="fill:none;stroke:#000000;stroke-linecap:square;"/>
   </g>
   <g id="line2d_3">
    <path clip-path="url(#p20bd83fdcc)" d="M 96.610734 177.732403 
L 95.646641 177.582085 
L 94.566255 177.115587 
L 93.311843 176.900747 
L 92.387134 176.59555 
L 91.263419 176.47699 
L 90.389894 176.251593 
L 89.303545 176.14271 
L 88.405598 175.978573 
L 87.280565 175.758227 
L 86.27232 175.603362 
L 85.006996 175.403039 
L 83.739171 175.158495 
L 82.45373 174.975092 
L 81.304986 174.733202 
L 80.018857 174.48945 
L 78.721068 174.289131 
L 77.30518 174.124624 
L 76.002025 173.948867 
L 74.65811 173.719751 
L 73.152172 173.532445 
L 71.438272 173.289864 
L 70.175153 173.108127 
L 68.513638 172.988294 
L 66.874943 172.762622 
L 65.491331 172.545251 
L 64.324818 172.386852 
L 62.746223 172.271571 
L 61.533706 172.147217 
L 59.940121 172.110756 
L 58.587319 172.010823 
L 57.153306 172.031284 
L 55.833473 171.978529 
L 54.425532 171.9961 
L 53.300136 171.947837 
L 52.068971 172.017289 
L 50.765336 172.026553 
L 49.699452 172.206655 
L 48.208499 172.266255 
L 47.080905 172.357284 
L 45.808457 172.52969 
L 44.503396 172.733371 
L 43.282124 172.92182 
L 42.298244 173.225312 
L 41.315751 173.588764 
L 40.367778 173.905806 
L 39.099679 174.359897 
L 38.080227 174.830633 
L 37.230163 175.658226 
L 36.103161 177.030906 
L 36.096245 177.117341 
L 37.537385 177.641507 
L 38.679338 177.894354 
L 40.043892 177.972302 
L 41.152321 177.967688 
L 42.146569 178.036039 
L 43.208347 178.073229 
L 44.508967 178.10053 
L 45.749835 178.186929 
L 47.130759 178.269973 
L 48.291537 178.405267 
L 49.636805 178.458655 
L 50.980485 178.516234 
L 52.245853 178.627681 
L 53.402599 178.686083 
L 54.770513 178.773438 
L 55.959649 178.78907 
L 57.207734 178.854873 
L 58.485516 178.892275 
L 59.664016 178.944688 
L 60.760525 178.972283 
L 62.006121 178.99778 
L 63.250884 179.033695 
L 64.466149 179.044316 
L 65.689313 179.058342 
L 66.928129 179.078996 
L 68.191773 179.058111 
L 69.464466 179.080157 
L 70.73589 179.07394 
L 72.018552 179.073883 
L 73.281633 179.029696 
L 74.563189 179.045332 
L 75.907808 178.985424 
L 77.188653 178.994054 
L 78.555928 178.941292 
L 79.867276 178.878891 
L 81.1933 178.805815 
L 82.509698 178.783649 
L 83.770959 178.701572 
L 85.147074 178.615996 
L 86.479668 178.449349 
L 87.768557 178.279595 
L 88.975104 178.107884 
L 90.128648 177.906349 
L 91.358657 177.662755 
L 92.421004 177.436843 
L 93.532422 177.573077 
L 94.806705 177.367775 
L 95.778738 177.022074 
L 96.808813 177.250188 
" style="fill:none;stroke:#000000;stroke-linecap:square;"/>
   </g>
   <g id="line2d_4">
    <path clip-path="url(#p20bd83fdcc)" d="M 96.697592 109.518889 
L 95.762364 108.99904 
L 94.715345 108.469802 
L 93.495663 108.161688 
L 92.553373 107.696396 
L 91.402499 107.375194 
L 90.650145 106.857036 
L 89.546767 106.457738 
L 88.6134 105.9111 
L 87.445065 105.390677 
L 86.46081 105.01549 
L 85.095639 104.571103 
L 83.804143 104.107662 
L 82.469486 103.823873 
L 81.292448 103.447314 
L 80.000446 103.114973 
L 78.750179 102.860562 
L 77.271072 102.740661 
L 75.886134 102.570371 
L 74.584681 102.40255 
L 73.10754 102.268198 
L 71.421275 102.137218 
L 70.122027 102.083146 
L 68.573698 102.097406 
L 66.883501 102.010013 
L 65.607793 101.982503 
L 64.470659 101.989464 
L 62.935179 102.020207 
L 61.670571 102.070147 
L 60.101895 102.177214 
L 58.81254 102.239677 
L 57.45915 102.405302 
L 56.083347 102.487488 
L 54.80062 102.654695 
L 53.735644 102.788183 
L 52.432 103.01062 
L 51.064128 103.143814 
L 49.893016 103.430395 
L 48.481335 103.671334 
L 47.296385 103.850846 
L 45.898838 104.095404 
L 44.674175 104.352046 
L 43.411032 104.617379 
L 42.387892 104.970395 
L 41.292049 105.401835 
L 40.251659 105.702917 
L 38.877264 106.15692 
L 37.783808 106.525864 
L 36.777712 107.417439 
L 35.633973 108.606884 
L 35.537768 108.702728 
L 36.80041 109.430579 
L 37.852533 109.858125 
L 39.10839 109.928024 
L 40.20674 110.019049 
L 41.254135 110.125829 
L 42.312398 110.285173 
L 43.538571 110.432646 
L 44.782879 110.582045 
L 46.196999 110.720381 
L 47.410052 110.976346 
L 48.80343 111.035898 
L 50.159177 111.184721 
L 51.426757 111.35826 
L 52.577837 111.479259 
L 54.014239 111.57147 
L 55.19713 111.690322 
L 56.494861 111.740291 
L 57.926148 111.837067 
L 59.26017 111.91738 
L 60.402102 111.973164 
L 61.776122 112.06457 
L 63.139507 112.097885 
L 64.383836 112.162951 
L 65.623596 112.144281 
L 66.999247 112.218181 
L 68.430608 112.161796 
L 69.873044 112.217998 
L 71.23413 112.146389 
L 72.665312 112.102453 
L 74.004903 111.970441 
L 75.26174 111.877477 
L 76.627022 111.706104 
L 77.92928 111.617817 
L 79.368663 111.38269 
L 80.710965 111.228904 
L 82.115059 110.962112 
L 83.405337 110.776961 
L 84.812351 110.56383 
L 86.044717 110.35293 
L 87.304923 110.050874 
L 88.507777 109.791631 
L 89.583027 109.50611 
L 90.619619 109.282401 
L 91.808534 109.044664 
L 92.7596 108.889301 
L 93.747095 109.026027 
L 94.949506 109.058002 
L 95.878191 108.872711 
L 96.85918 109.119455 
" style="fill:none;stroke:#000000;stroke-linecap:square;"/>
   </g>
   <g id="line2d_5">
    <path clip-path="url(#p20bd83fdcc)" d="M 96.762956 41.100431 
L 95.859094 39.67053 
L 94.827548 38.674844 
L 93.629953 37.914661 
L 92.674965 37.15094 
L 91.493532 36.523903 
L 90.849323 35.799502 
L 89.721262 35.228077 
L 88.765328 34.557459 
L 87.623503 33.940593 
L 86.711103 33.535361 
L 85.378498 33.079847 
L 84.134201 32.630646 
L 82.821638 32.516808 
L 81.692833 32.232281 
L 80.399848 32.049552 
L 79.140885 31.950187 
L 77.595938 32.02211 
L 76.127039 31.987929 
L 74.793347 31.96322 
L 73.191699 31.96966 
L 71.501349 31.970871 
L 70.11078 32.029636 
L 68.517328 32.15179 
L 66.695119 32.203466 
L 65.366633 32.331552 
L 64.215398 32.447962 
L 62.69691 32.573371 
L 61.384322 32.762866 
L 59.952529 32.904504 
L 58.777289 33.062805 
L 57.532472 33.292819 
L 56.161417 33.440099 
L 55.00306 33.612748 
L 53.906461 33.781899 
L 52.604401 34.014242 
L 51.190056 34.154188 
L 49.992024 34.422443 
L 48.611607 34.683084 
L 47.373688 34.853203 
L 45.778373 35.080774 
L 44.561158 35.328207 
L 43.268671 35.628548 
L 42.209621 36.028732 
L 40.998126 36.599705 
L 39.885399 36.95894 
L 38.527172 37.42451 
L 37.370771 37.697175 
L 36.353333 38.681698 
L 35.215407 39.815167 
L 35.025755 39.975742 
L 36.097679 41.156523 
L 37.016563 41.877022 
L 38.032679 42.123429 
L 39.022233 42.475408 
L 40.000309 42.742886 
L 40.937256 43.105611 
L 42.018147 43.450697 
L 43.153089 43.865732 
L 44.532009 44.105244 
L 45.819342 44.612947 
L 47.266992 44.679619 
L 48.641342 45.000204 
L 50.110527 45.28033 
L 51.422381 45.582187 
L 52.951441 45.758306 
L 54.209103 45.890144 
L 55.731175 45.806695 
L 57.39682 46.05888 
L 58.989497 46.048462 
L 60.281648 46.06654 
L 61.947988 46.200543 
L 63.471259 46.167477 
L 64.701523 46.259183 
L 65.810498 46.19451 
L 67.10195 46.236741 
L 68.523708 46.087025 
L 69.914515 46.13063 
L 71.205373 45.980322 
L 72.618643 45.913038 
L 74.043547 45.667752 
L 75.285633 45.488265 
L 76.656178 45.204737 
L 78.002032 44.957815 
L 79.561882 44.561403 
L 80.982951 44.25138 
L 82.460549 43.870277 
L 83.787389 43.578537 
L 85.299185 43.234366 
L 86.539732 42.933347 
L 87.847479 42.583735 
L 89.022667 42.204554 
L 90.007451 41.798354 
L 90.936129 41.498101 
L 92.082679 41.200865 
L 92.921698 40.988785 
L 93.858063 41.023973 
L 95.014854 41.028195 
L 95.941547 40.813034 
L 96.900639 40.956714 
" style="fill:none;stroke:#000000;stroke-linecap:square;"/>
   </g>
   <g id="line2d_6">
    <path clip-path="url(#p20bd83fdcc)" d="M 178.714226 313.499344 
L 177.580046 313.116765 
L 176.253977 312.56386 
L 174.706837 312.265433 
L 173.525646 311.785025 
L 172.061298 311.474627 
L 171.001613 311.152894 
L 169.655446 310.925565 
L 168.511763 310.557933 
L 167.160971 310.235892 
L 166.010536 309.932839 
L 164.64198 309.634686 
L 163.301946 309.28752 
L 161.946487 308.947821 
L 160.903341 308.672884 
L 159.550023 308.375552 
L 158.466066 308.121761 
L 157.308902 307.8713 
L 156.290498 307.648324 
L 155.118751 307.372615 
L 154.122937 307.209907 
L 152.760868 307.025343 
L 151.777917 306.874638 
L 150.554894 306.746348 
L 149.340422 306.577603 
L 148.093298 306.414354 
L 146.941564 306.303795 
L 145.671848 306.231133 
L 144.482762 306.101549 
L 143.228054 306.12409 
L 141.795341 306.045875 
L 140.55298 306.080929 
L 139.132532 306.040425 
L 137.684368 306.145653 
L 136.318532 306.085952 
L 135.08102 306.219304 
L 133.542171 306.269952 
L 132.27855 306.459038 
L 130.726805 306.571359 
L 129.457186 306.707196 
L 128.009833 307.03742 
L 126.554352 307.410069 
L 125.315849 307.679797 
L 124.118823 308.070696 
L 123.027112 308.52314 
L 121.952262 308.814302 
L 120.694833 309.541509 
L 119.578376 310.128221 
L 118.62012 311.307788 
L 117.444325 313.315847 
L 117.30034 313.569719 
L 118.809356 314.583837 
L 120.050342 314.981691 
L 121.495222 315.234428 
L 122.573129 315.128651 
L 123.796364 315.286293 
L 124.884953 315.087684 
L 126.212519 315.039877 
L 127.433207 314.917493 
L 128.749815 314.840285 
L 129.952756 314.689252 
L 131.390493 314.548381 
L 132.714076 314.305265 
L 134.039449 314.184008 
L 135.340075 314.018313 
L 136.73407 313.819107 
L 137.98176 313.589078 
L 139.227678 313.433903 
L 140.508104 313.245584 
L 141.703949 313.103059 
L 142.795226 312.930589 
L 143.953453 312.799431 
L 145.200895 312.668649 
L 146.358508 312.521011 
L 147.498952 312.395903 
L 148.618787 312.331445 
L 149.789662 312.221012 
L 150.884296 312.119147 
L 151.960642 312.086251 
L 153.090136 312.07995 
L 154.263894 312.07529 
L 155.5376 312.104137 
L 156.898049 312.122082 
L 158.342347 312.185838 
L 159.575868 312.192407 
L 160.937013 312.111813 
L 162.218387 312.239515 
L 163.573421 312.379257 
L 164.68243 312.47818 
L 166.153638 312.579161 
L 167.482738 312.734177 
L 168.905318 312.877221 
L 170.156111 312.929166 
L 171.488429 312.945869 
L 172.826325 313.014559 
L 174.100493 313.09207 
L 175.356313 313.408556 
L 176.784937 313.579165 
L 177.837955 313.481279 
L 178.955507 313.70343 
" style="fill:none;stroke:#000000;stroke-linecap:square;"/>
   </g>
   <g id="line2d_7">
    <path clip-path="url(#p20bd83fdcc)" d="M 178.677839 245.66801 
L 177.602547 245.432979 
L 176.382846 244.85753 
L 174.944011 244.580604 
L 173.921105 244.200012 
L 172.593438 244.017211 
L 171.543015 243.744181 
L 170.326658 243.59832 
L 169.310116 243.384081 
L 168.055146 243.193653 
L 167.00778 243.040179 
L 165.712557 242.899734 
L 164.403741 242.709249 
L 163.109267 242.52808 
L 162.028702 242.351008 
L 160.758142 242.167709 
L 159.452038 241.989951 
L 158.196821 241.787395 
L 157.089496 241.629545 
L 155.770484 241.422856 
L 154.509704 241.251937 
L 153.001487 241.0473 
L 151.890035 240.882601 
L 150.477532 240.736204 
L 149.18121 240.518572 
L 147.958959 240.316502 
L 146.80181 240.133519 
L 145.478362 239.995147 
L 144.299277 239.799435 
L 142.87269 239.700634 
L 141.487553 239.559744 
L 140.086924 239.488586 
L 138.766195 239.384824 
L 137.252519 239.348046 
L 135.971397 239.258435 
L 134.667832 239.298779 
L 133.25911 239.299733 
L 132.105325 239.422121 
L 130.654259 239.488559 
L 129.452188 239.561708 
L 128.176744 239.756919 
L 126.787761 239.984626 
L 125.605698 240.186641 
L 124.572295 240.472533 
L 123.618464 240.816258 
L 122.641781 241.284886 
L 121.415973 241.790745 
L 120.361771 242.442844 
L 119.517424 243.471421 
L 118.219581 245.237871 
L 118.210257 245.421227 
L 119.736067 246.372526 
L 120.882606 246.769487 
L 122.286447 246.927691 
L 123.39499 246.926836 
L 124.51349 247.077047 
L 125.601434 247.059265 
L 126.956996 247.088747 
L 128.175108 247.109792 
L 129.518731 247.177387 
L 130.708053 247.198472 
L 132.052238 247.1921 
L 133.282352 247.114293 
L 134.523644 247.115898 
L 135.703414 247.07146 
L 137.031528 247.025173 
L 138.242194 246.953365 
L 139.512919 246.94101 
L 140.767452 246.867063 
L 141.969892 246.836873 
L 143.134677 246.804228 
L 144.348285 246.771791 
L 145.586265 246.756345 
L 146.800719 246.704481 
L 148.058207 246.664615 
L 149.301067 246.639612 
L 150.573693 246.584952 
L 151.827431 246.53465 
L 153.037866 246.517939 
L 154.251966 246.487284 
L 155.475804 246.452676 
L 156.713618 246.438348 
L 158.006901 246.37687 
L 159.311803 246.387555 
L 160.541734 246.335152 
L 161.875809 246.285275 
L 163.116245 246.266298 
L 164.474672 246.288402 
L 165.609805 246.250166 
L 166.953607 246.235706 
L 168.228669 246.185185 
L 169.473827 246.135141 
L 170.669705 246.052747 
L 171.842625 245.982633 
L 173.087023 245.813549 
L 174.251676 245.667214 
L 175.430725 245.801029 
L 176.777805 245.592075 
L 177.812062 245.307613 
L 178.910879 245.431794 
" style="fill:none;stroke:#000000;stroke-linecap:square;"/>
   </g>
   <g id="line2d_8">
    <path clip-path="url(#p20bd83fdcc)" d="M 178.718594 177.668164 
L 177.704387 177.466011 
L 176.571489 176.900815 
L 175.228379 176.60714 
L 174.274202 176.224435 
L 173.068403 176.048376 
L 172.11969 175.719335 
L 170.978439 175.49361 
L 170.074242 175.221676 
L 168.920598 174.935084 
L 167.928865 174.710943 
L 166.661553 174.475918 
L 165.465884 174.183155 
L 164.255742 173.943208 
L 163.096166 173.652672 
L 161.852359 173.40524 
L 160.591967 173.160347 
L 159.22763 172.959957 
L 158.011437 172.757211 
L 156.702629 172.564047 
L 155.270154 172.342672 
L 153.733259 172.12861 
L 152.481632 171.93934 
L 150.954732 171.827154 
L 149.443815 171.619127 
L 148.083258 171.450645 
L 146.890039 171.320743 
L 145.367613 171.235305 
L 144.111307 171.155224 
L 142.553159 171.176709 
L 141.11933 171.14649 
L 139.671237 171.198542 
L 138.363954 171.215286 
L 136.877857 171.330082 
L 135.764851 171.393498 
L 134.52098 171.556427 
L 133.322554 171.645803 
L 132.22943 171.890697 
L 130.91605 172.074382 
L 129.731291 172.271894 
L 128.556109 172.520634 
L 127.196575 172.813083 
L 125.823418 173.050736 
L 124.871709 173.371948 
L 123.737638 173.672585 
L 122.675666 174.115095 
L 121.443492 174.557767 
L 120.423395 175.08389 
L 119.622955 175.905742 
L 118.49274 177.219314 
L 118.568271 177.297824 
L 120.047687 178.008135 
L 121.175704 178.397403 
L 122.530733 178.579341 
L 123.594271 178.699496 
L 124.637978 178.862552 
L 125.692078 178.971848 
L 126.946771 179.025896 
L 128.092186 179.13139 
L 129.437111 179.232173 
L 130.649224 179.392578 
L 132.008798 179.433575 
L 133.297916 179.482687 
L 134.532472 179.584793 
L 135.753819 179.591507 
L 137.116124 179.662655 
L 138.332091 179.671608 
L 139.63107 179.762619 
L 140.981693 179.732685 
L 142.263959 179.766627 
L 143.458998 179.728895 
L 144.728507 179.724106 
L 146.000308 179.702833 
L 147.238031 179.649309 
L 148.525493 179.558596 
L 149.821026 179.528663 
L 151.144451 179.3997 
L 152.514668 179.341046 
L 153.827565 179.213277 
L 155.156986 179.152388 
L 156.442411 179.02315 
L 157.756102 178.931187 
L 159.018193 178.771128 
L 160.228397 178.681589 
L 161.549737 178.572231 
L 162.759986 178.441844 
L 163.939155 178.296473 
L 165.185385 178.21052 
L 166.396074 178.100133 
L 167.649286 177.996612 
L 168.798831 177.848708 
L 169.976733 177.682352 
L 171.125552 177.539106 
L 172.184067 177.407387 
L 173.361873 177.260987 
L 174.440955 177.107552 
L 175.514512 177.244176 
L 176.795613 177.222943 
L 177.808755 177.103894 
L 178.897833 177.275474 
" style="fill:none;stroke:#000000;stroke-linecap:square;"/>
   </g>
   <g id="line2d_9">
    <path clip-path="url(#p20bd83fdcc)" d="M 178.738972 109.452156 
L 177.730585 109.213087 
L 176.638696 108.693828 
L 175.382343 108.39748 
L 174.43185 108.02194 
L 173.273562 107.766193 
L 172.413167 107.334626 
L 171.234586 106.996237 
L 170.364751 106.599117 
L 169.19843 106.135616 
L 168.197343 105.783785 
L 166.961502 105.402122 
L 165.799795 104.98208 
L 164.554191 104.632895 
L 163.35597 104.258133 
L 162.043728 103.935871 
L 160.800819 103.63361 
L 159.36074 103.414014 
L 158.075531 103.207532 
L 156.762611 103.019255 
L 155.333462 102.797233 
L 153.824824 102.604957 
L 152.534274 102.454252 
L 150.975977 102.372549 
L 149.379647 102.22521 
L 148.015146 102.163997 
L 146.798994 102.127052 
L 145.272789 102.134058 
L 143.962774 102.148398 
L 142.484503 102.265372 
L 141.177045 102.322349 
L 139.80926 102.463972 
L 138.538199 102.560564 
L 137.229721 102.75643 
L 136.207103 102.897789 
L 134.973925 103.112386 
L 133.766316 103.224533 
L 132.661838 103.49374 
L 131.423544 103.707946 
L 130.208453 103.920087 
L 128.928059 104.144784 
L 127.641745 104.434932 
L 126.256053 104.658919 
L 125.205062 105.015317 
L 124.049553 105.366567 
L 122.980415 105.761713 
L 121.639943 106.179249 
L 120.588944 106.61613 
L 119.669477 107.497422 
L 118.50592 108.675023 
L 118.459167 108.799491 
L 119.76415 109.676872 
L 120.805533 110.172235 
L 121.989567 110.409017 
L 123.004205 110.63954 
L 124.017219 110.863361 
L 125.032127 111.086114 
L 126.176301 111.286723 
L 127.289042 111.485361 
L 128.655261 111.635177 
L 129.90106 111.918072 
L 131.279194 111.994343 
L 132.661289 112.133138 
L 134.005106 112.305025 
L 135.24961 112.361587 
L 136.691363 112.453916 
L 137.941571 112.53252 
L 139.246741 112.606314 
L 140.678924 112.665047 
L 142.101098 112.711539 
L 143.373882 112.752161 
L 144.809213 112.827756 
L 146.15979 112.833841 
L 147.42197 112.864511 
L 148.635191 112.791749 
L 149.932816 112.802541 
L 151.321158 112.655136 
L 152.781287 112.641657 
L 154.097037 112.492247 
L 155.501328 112.414966 
L 156.826206 112.218322 
L 158.095689 112.057298 
L 159.355921 111.798329 
L 160.563784 111.618974 
L 161.939799 111.333994 
L 163.199894 111.10176 
L 164.480277 110.779541 
L 165.718151 110.528433 
L 167.020572 110.262246 
L 168.22185 110.009532 
L 169.337242 109.730426 
L 170.453606 109.472388 
L 171.514932 109.212881 
L 172.496446 109.0198 
L 173.630406 108.847845 
L 174.603143 108.687164 
L 175.609753 108.786529 
L 176.842506 108.864613 
L 177.84569 108.942616 
L 178.924006 109.178579 
" style="fill:none;stroke:#000000;stroke-linecap:square;"/>
   </g>
   <g id="line2d_10">
    <path clip-path="url(#p20bd83fdcc)" d="M 178.863156 41.332066 
L 177.884088 40.58477 
L 176.800749 40.019543 
L 175.569865 39.567893 
L 174.575555 39.078247 
L 173.341852 38.663736 
L 172.552884 38.035419 
L 171.334311 37.525264 
L 170.35956 36.911913 
L 169.171647 36.370203 
L 168.200884 35.940854 
L 166.980893 35.505937 
L 165.822039 35.065361 
L 164.568316 34.829302 
L 163.418898 34.512857 
L 162.141892 34.283267 
L 160.883667 34.121084 
L 159.422074 34.077047 
L 158.073892 33.98628 
L 156.78271 33.891089 
L 155.302814 33.794202 
L 153.758693 33.744254 
L 152.417449 33.707685 
L 150.857022 33.748292 
L 149.197357 33.717268 
L 147.824697 33.75722 
L 146.66656 33.794912 
L 145.113502 33.865668 
L 143.825278 33.943495 
L 142.446329 34.06617 
L 141.2678 34.131 
L 140.016401 34.285467 
L 138.762052 34.339481 
L 137.598751 34.454377 
L 136.537118 34.569592 
L 135.281568 34.737445 
L 133.881527 34.813415 
L 132.706799 35.05763 
L 131.407068 35.278061 
L 130.156033 35.446162 
L 128.678498 35.673439 
L 127.361983 35.923742 
L 126.05294 36.217958 
L 124.932088 36.606102 
L 123.631181 37.008465 
L 122.452352 37.376371 
L 121.007666 37.783346 
L 119.867417 38.095926 
L 118.813293 38.998959 
L 117.65075 40.087055 
L 117.486869 40.254336 
L 118.622338 41.40747 
L 119.522744 42.064524 
L 120.479747 42.319246 
L 121.449798 42.67115 
L 122.412992 42.979368 
L 123.327339 43.314568 
L 124.359578 43.693553 
L 125.39916 44.085463 
L 126.742091 44.351776 
L 128.057295 44.787517 
L 129.475225 44.936308 
L 130.799586 45.223463 
L 132.259801 45.495392 
L 133.644642 45.726405 
L 135.193177 45.912945 
L 136.471775 46.021775 
L 138.035593 46.034182 
L 139.697097 46.212723 
L 141.329507 46.25648 
L 142.717729 46.256126 
L 144.409325 46.358345 
L 145.915431 46.299735 
L 147.179385 46.344012 
L 148.319074 46.21503 
L 149.58784 46.207337 
L 151.038049 46.015342 
L 152.481699 45.979907 
L 153.771288 45.782619 
L 155.165491 45.693113 
L 156.556365 45.430279 
L 157.798362 45.213427 
L 159.048953 44.90258 
L 160.298669 44.620835 
L 161.755431 44.22647 
L 163.12179 43.951455 
L 164.460376 43.555523 
L 165.770454 43.241913 
L 167.249907 42.920366 
L 168.49098 42.60179 
L 169.686471 42.253781 
L 170.813094 41.913662 
L 171.860389 41.548297 
L 172.810841 41.288168 
L 173.923659 41.037214 
L 174.837844 40.784348 
L 175.821961 40.836448 
L 177.012238 40.906233 
L 177.996147 40.913459 
L 179.0182 41.085687 
" style="fill:none;stroke:#000000;stroke-linecap:square;"/>
   </g>
   <g id="line2d_11">
    <path clip-path="url(#p20bd83fdcc)" d="M 261.03801 313.665484 
L 259.990429 313.176072 
L 258.71533 312.566278 
L 257.174178 312.190168 
L 256.0511 311.692602 
L 254.518658 311.296235 
L 253.371374 310.870452 
L 251.972118 310.584641 
L 250.797656 310.14907 
L 249.37877 309.78364 
L 248.192191 309.439187 
L 246.831954 309.134005 
L 245.486855 308.774644 
L 244.097434 308.404921 
L 243.098234 308.10712 
L 241.693619 307.792962 
L 240.638157 307.520538 
L 239.426776 307.231576 
L 238.404607 306.998301 
L 237.13362 306.720449 
L 236.161032 306.515524 
L 234.799961 306.34436 
L 233.748994 306.193587 
L 232.505613 306.065283 
L 231.305374 305.921976 
L 230.073672 305.778273 
L 228.882915 305.691857 
L 227.636701 305.653793 
L 226.44051 305.52678 
L 225.238217 305.569904 
L 223.803156 305.508628 
L 222.580876 305.541415 
L 221.255334 305.494555 
L 219.832553 305.593376 
L 218.451609 305.568739 
L 217.271414 305.695923 
L 215.685772 305.750907 
L 214.450812 305.964527 
L 212.950114 306.127393 
L 211.720936 306.321796 
L 210.203747 306.649201 
L 208.813576 307.014167 
L 207.668669 307.376962 
L 206.487678 307.778356 
L 205.286104 308.289645 
L 204.140142 308.688776 
L 202.893718 309.480667 
L 201.678526 310.141612 
L 200.632375 311.279152 
L 199.461216 313.43153 
L 199.354954 313.566722 
L 200.9218 314.810581 
L 202.168239 315.285353 
L 203.620765 315.675672 
L 204.708705 315.575292 
L 205.956574 315.818182 
L 207.069195 315.667385 
L 208.485776 315.692625 
L 209.740862 315.650076 
L 211.104056 315.685982 
L 212.385493 315.593307 
L 213.89549 315.542735 
L 215.1651 315.387009 
L 216.482615 315.355962 
L 217.820022 315.247576 
L 219.256414 315.132847 
L 220.483606 314.967796 
L 221.777838 314.863217 
L 223.117699 314.700596 
L 224.362217 314.623515 
L 225.452496 314.466658 
L 226.629268 314.377687 
L 227.933421 314.267723 
L 229.144151 314.153675 
L 230.356052 313.999854 
L 231.607576 313.929141 
L 232.847006 313.799853 
L 234.046702 313.653664 
L 235.207403 313.544529 
L 236.392958 313.501735 
L 237.58121 313.442885 
L 238.854004 313.381912 
L 240.148854 313.32595 
L 241.473333 313.298403 
L 242.673327 313.263419 
L 243.982649 313.151018 
L 245.108498 313.184711 
L 246.346576 313.209486 
L 247.41471 313.220587 
L 248.758714 313.241229 
L 249.969444 313.320369 
L 251.273862 313.371504 
L 252.482558 313.375433 
L 253.742042 313.388848 
L 255.08437 313.369814 
L 256.380785 313.309639 
L 257.567104 313.460993 
L 258.992603 313.566084 
L 260.05177 313.491858 
L 261.153476 313.600582 
" style="fill:none;stroke:#000000;stroke-linecap:square;"/>
   </g>
   <g id="line2d_12">
    <path clip-path="url(#p20bd83fdcc)" d="M 261.038349 245.897466 
L 260.058641 245.593845 
L 258.902297 244.968215 
L 257.494545 244.609973 
L 256.518353 244.204642 
L 255.14592 243.952514 
L 254.057777 243.598891 
L 252.801473 243.400006 
L 251.764784 243.094241 
L 250.448208 242.816914 
L 249.371419 242.558434 
L 248.043443 242.335451 
L 246.762341 242.057012 
L 245.456278 241.799071 
L 244.34471 241.534792 
L 243.021285 241.278854 
L 241.784216 241.019727 
L 240.412863 240.778905 
L 239.237906 240.567834 
L 237.853955 240.346567 
L 236.641792 240.117746 
L 235.195002 239.927853 
L 234.052198 239.751906 
L 232.710194 239.613496 
L 231.411895 239.40953 
L 230.17919 239.245318 
L 228.989222 239.096461 
L 227.612115 238.991983 
L 226.406272 238.841755 
L 225.059942 238.820177 
L 223.588663 238.715125 
L 222.281034 238.698757 
L 221.020706 238.645948 
L 219.521071 238.685316 
L 218.242468 238.647512 
L 217.013223 238.728393 
L 215.554032 238.785262 
L 214.423815 238.949409 
L 213.029205 239.061249 
L 211.814413 239.215912 
L 210.419497 239.454208 
L 209.104209 239.770384 
L 207.819279 240.027905 
L 206.825462 240.3887 
L 205.751894 240.737586 
L 204.63724 241.246469 
L 203.427653 241.802477 
L 202.307611 242.492366 
L 201.380851 243.538599 
L 200.088037 245.40921 
L 200.103927 245.553142 
L 201.628177 246.744151 
L 202.759888 247.269957 
L 204.11478 247.503489 
L 205.215897 247.581143 
L 206.414212 247.789582 
L 207.534192 247.802513 
L 208.896232 247.865009 
L 210.090168 247.911204 
L 211.453419 248.007672 
L 212.758723 248.023763 
L 214.163704 248.035266 
L 215.383397 247.954867 
L 216.669548 247.969771 
L 217.970676 247.927815 
L 219.351907 247.8982 
L 220.550908 247.839331 
L 221.859468 247.82147 
L 223.187809 247.741788 
L 224.4724 247.73491 
L 225.681298 247.676196 
L 226.962908 247.630823 
L 228.284359 247.595706 
L 229.554187 247.513564 
L 230.870821 247.42744 
L 232.184668 247.401267 
L 233.491428 247.306609 
L 234.814041 247.236373 
L 236.081052 247.146274 
L 237.330042 247.094202 
L 238.560281 247.019638 
L 239.853981 246.94953 
L 241.021181 246.817614 
L 242.216963 246.766993 
L 243.441173 246.676316 
L 244.709408 246.575818 
L 245.833496 246.497304 
L 247.061162 246.448018 
L 248.178203 246.358581 
L 249.440574 246.304985 
L 250.576384 246.218446 
L 251.713334 246.136095 
L 252.937317 246.025826 
L 254.069072 245.929845 
L 255.311522 245.77719 
L 256.527067 245.596621 
L 257.642224 245.683481 
L 259.00048 245.533164 
L 260.04465 245.283823 
L 261.134964 245.295298 
" style="fill:none;stroke:#000000;stroke-linecap:square;"/>
   </g>
   <g id="line2d_13">
    <path clip-path="url(#p20bd83fdcc)" d="M 260.950653 177.873357 
L 259.949018 177.674541 
L 258.824532 177.125783 
L 257.47711 176.784768 
L 256.521485 176.430233 
L 255.270234 176.217806 
L 254.265777 175.834925 
L 253.068945 175.574099 
L 252.157688 175.239814 
L 250.978076 174.916489 
L 249.989419 174.613273 
L 248.786901 174.341786 
L 247.637349 173.996355 
L 246.465699 173.681568 
L 245.343563 173.31653 
L 244.065202 173.011457 
L 242.825694 172.678138 
L 241.426627 172.382771 
L 240.238066 172.117284 
L 238.887218 171.864282 
L 237.537952 171.54415 
L 236.097247 171.284726 
L 234.859683 171.027867 
L 233.376037 170.860448 
L 231.931917 170.618388 
L 230.553101 170.444705 
L 229.349903 170.297888 
L 227.885814 170.228691 
L 226.567098 170.157114 
L 225.159131 170.202259 
L 223.740584 170.190718 
L 222.296047 170.281529 
L 221.056138 170.32463 
L 219.524957 170.512785 
L 218.344451 170.657437 
L 217.078983 170.884321 
L 215.817475 171.056073 
L 214.708066 171.357523 
L 213.427429 171.592737 
L 212.240328 171.848809 
L 210.962586 172.130635 
L 209.582412 172.499587 
L 208.13871 172.808405 
L 207.317831 173.203252 
L 205.900417 173.463168 
L 204.744975 174.008373 
L 203.501927 174.490278 
L 202.406746 175.020581 
L 201.63322 175.931453 
L 200.449711 177.291897 
L 200.54803 177.366587 
L 202.03593 178.204294 
L 203.196054 178.792708 
L 204.54238 179.056433 
L 205.607363 179.307022 
L 206.734423 179.578417 
L 207.799347 179.784626 
L 209.061644 179.964176 
L 210.176499 180.156976 
L 211.530378 180.349718 
L 212.800495 180.574025 
L 214.17035 180.671758 
L 215.422419 180.739601 
L 216.647675 180.866927 
L 217.876312 180.866048 
L 219.232063 180.962879 
L 220.426778 180.976508 
L 221.698335 181.076883 
L 223.072457 181.001009 
L 224.432792 181.018276 
L 225.699253 180.935355 
L 227.030599 180.878763 
L 228.374521 180.797224 
L 229.671967 180.674051 
L 230.994059 180.499557 
L 232.327993 180.401366 
L 233.679721 180.203324 
L 235.086831 180.052103 
L 236.388285 179.850904 
L 237.717735 179.723225 
L 238.969112 179.526638 
L 240.228343 179.345031 
L 241.452773 179.110709 
L 242.627026 178.965266 
L 243.926238 178.792638 
L 245.118377 178.603475 
L 246.288288 178.395183 
L 247.484576 178.248078 
L 248.667584 178.076986 
L 249.867257 177.922659 
L 250.963958 177.739422 
L 252.081841 177.534379 
L 253.218195 177.366241 
L 254.254136 177.236892 
L 255.415649 177.105904 
L 256.530184 176.984384 
L 257.596624 177.066371 
L 258.90633 177.066943 
L 259.956566 177.08297 
L 261.075797 177.201123 
" style="fill:none;stroke:#000000;stroke-linecap:square;"/>
   </g>
   <g id="line2d_14">
    <path clip-path="url(#p20bd83fdcc)" d="M 260.907246 109.60204 
L 259.863764 109.493194 
L 258.724848 108.976936 
L 257.420416 108.681173 
L 256.429744 108.378435 
L 255.20715 108.154246 
L 254.234324 107.778872 
L 253.005488 107.532335 
L 252.087718 107.220748 
L 250.887144 106.908666 
L 249.910385 106.65136 
L 248.723984 106.363486 
L 247.653523 106.060815 
L 246.517526 105.782461 
L 245.418308 105.460947 
L 244.208908 105.184693 
L 243.025795 104.912761 
L 241.681318 104.672778 
L 240.495007 104.469736 
L 239.210114 104.262181 
L 237.880477 103.981012 
L 236.491912 103.758026 
L 235.265937 103.535184 
L 233.794744 103.390344 
L 232.352035 103.170506 
L 230.953144 103.02339 
L 229.753128 102.902925 
L 228.186131 102.848895 
L 226.842345 102.78399 
L 225.426186 102.819562 
L 224.060519 102.82075 
L 222.679488 102.889103 
L 221.384067 102.896187 
L 219.98741 103.045917 
L 218.878714 103.175146 
L 217.618861 103.34549 
L 216.278092 103.435432 
L 215.130169 103.692729 
L 213.93162 103.879663 
L 212.688044 104.072171 
L 211.388592 104.251737 
L 210.003184 104.49269 
L 208.657106 104.740626 
L 207.616962 105.094376 
L 206.293763 105.374153 
L 205.129901 105.847612 
L 203.785459 106.215755 
L 202.648722 106.666073 
L 201.770085 107.496245 
L 200.532449 108.612859 
L 200.474307 108.765719 
L 201.710232 109.714864 
L 202.756644 110.358117 
L 203.882486 110.685652 
L 204.852676 111.082486 
L 205.872242 111.41346 
L 206.856822 111.716315 
L 207.968096 112.027613 
L 209.025013 112.306457 
L 210.43184 112.533317 
L 211.724988 112.847906 
L 213.104229 112.999075 
L 214.480064 113.159652 
L 215.8912 113.353206 
L 217.166603 113.422758 
L 218.606004 113.566553 
L 219.905089 113.620037 
L 221.24945 113.756397 
L 222.681743 113.787064 
L 224.17396 113.813992 
L 225.524473 113.808318 
L 226.985107 113.826367 
L 228.386283 113.77628 
L 229.674838 113.74579 
L 230.901216 113.589853 
L 232.205764 113.51702 
L 233.584755 113.290421 
L 235.049737 113.171212 
L 236.316516 112.948849 
L 237.684726 112.813273 
L 238.924246 112.571967 
L 240.166957 112.365029 
L 241.372298 112.072711 
L 242.563849 111.870992 
L 243.871644 111.58863 
L 245.129445 111.346118 
L 246.369833 111.031938 
L 247.589712 110.789022 
L 248.849766 110.53168 
L 250.043592 110.254843 
L 251.158515 110.01562 
L 252.236 109.749829 
L 253.331878 109.492327 
L 254.356415 109.312544 
L 255.500802 109.106134 
L 256.559093 108.922645 
L 257.609732 108.989058 
L 258.893936 108.978621 
L 259.955531 109.057107 
L 261.075373 109.194403 
" style="fill:none;stroke:#000000;stroke-linecap:square;"/>
   </g>
   <g id="line2d_15">
    <path clip-path="url(#p20bd83fdcc)" d="M 260.970759 41.369126 
L 259.934595 41.201263 
L 258.807983 40.764612 
L 257.545441 40.528247 
L 256.52474 40.278401 
L 255.312956 40.125564 
L 254.43873 39.790713 
L 253.239087 39.527223 
L 252.323454 39.265661 
L 251.157859 38.962966 
L 250.202543 38.740551 
L 249.068252 38.467116 
L 248.000033 38.224899 
L 246.869455 38.027601 
L 245.760021 37.793044 
L 244.56818 37.600033 
L 243.370715 37.427271 
L 242.068264 37.291118 
L 240.842843 37.171953 
L 239.49983 37.020905 
L 238.106796 36.839142 
L 236.592579 36.685193 
L 235.339798 36.55063 
L 233.794602 36.472135 
L 232.281384 36.317505 
L 230.886968 36.236613 
L 229.70099 36.155505 
L 228.038222 36.113342 
L 226.709174 36.072831 
L 225.24721 36.095234 
L 223.895301 36.067467 
L 222.581277 36.097785 
L 221.244609 36.03731 
L 219.882129 36.089603 
L 218.690509 36.108918 
L 217.393377 36.195832 
L 215.920015 36.186396 
L 214.722075 36.387255 
L 213.510597 36.495753 
L 212.366515 36.580691 
L 211.009701 36.690321 
L 209.6604 36.84316 
L 208.42486 36.962789 
L 207.24395 37.282019 
L 205.896193 37.471729 
L 204.692438 37.818099 
L 203.274163 38.107518 
L 202.125593 38.493568 
L 201.125849 39.216965 
L 199.90941 40.205891 
L 199.814309 40.397361 
L 201.0081 41.559101 
L 201.978466 42.255564 
L 203.013079 42.575878 
L 204.022118 43.02344 
L 205.05012 43.362083 
L 206.001215 43.683094 
L 207.056016 44.047714 
L 208.115706 44.375934 
L 209.522994 44.581457 
L 210.882967 44.921323 
L 212.278242 45.085853 
L 213.698138 45.286444 
L 215.20166 45.512638 
L 216.553689 45.601461 
L 218.023946 45.756677 
L 219.303584 45.784105 
L 220.666508 45.832882 
L 222.123723 45.885551 
L 223.607415 45.880655 
L 224.963999 45.848577 
L 226.536902 45.886851 
L 228.003903 45.802918 
L 229.327504 45.812786 
L 230.525244 45.64697 
L 231.796743 45.571846 
L 233.320277 45.354659 
L 234.794371 45.278037 
L 236.036937 45.085921 
L 237.452807 44.986253 
L 238.685381 44.785183 
L 239.884004 44.584887 
L 241.035869 44.329136 
L 242.247969 44.124441 
L 243.518096 43.832448 
L 244.855992 43.630251 
L 246.134022 43.323594 
L 247.394824 43.083432 
L 248.790487 42.843035 
L 250.040285 42.592773 
L 251.212531 42.359633 
L 252.325405 42.09862 
L 253.440082 41.826346 
L 254.457101 41.651402 
L 255.603495 41.433425 
L 256.63917 41.18049 
L 257.672277 41.199286 
L 258.954701 41.135142 
L 260.018143 41.160043 
L 261.115916 41.179613 
" style="fill:none;stroke:#000000;stroke-linecap:square;"/>
   </g>
   <g id="line2d_16">
    <path clip-path="url(#p20bd83fdcc)" d="M 343.392637 314.026821 
L 342.425069 313.258842 
L 341.178228 312.681692 
L 339.647745 312.265886 
L 338.547112 311.770188 
L 337.00002 311.25317 
L 335.814301 310.769779 
L 334.427445 310.399614 
L 333.254197 309.891929 
L 331.885775 309.445553 
L 330.693297 309.023081 
L 329.38276 308.672522 
L 328.101145 308.263156 
L 326.793457 307.8278 
L 325.762269 307.469491 
L 324.350589 307.078695 
L 323.247978 306.712698 
L 321.880461 306.356475 
L 320.839251 306.062519 
L 319.457728 305.719203 
L 318.513107 305.376646 
L 317.115486 305.117401 
L 316.060452 304.892986 
L 314.718668 304.683998 
L 313.572989 304.481019 
L 312.217368 304.322872 
L 310.98857 304.180159 
L 309.539954 304.141423 
L 308.422838 303.889289 
L 307.107859 303.975922 
L 305.58228 303.859981 
L 304.292347 303.910461 
L 303.0852 303.762177 
L 301.633383 304.005981 
L 300.272178 303.906297 
L 299.104163 304.148426 
L 297.518542 304.104613 
L 296.424735 304.339046 
L 294.870207 304.445964 
L 293.775435 304.627154 
L 292.353968 304.914186 
L 291.055665 305.188468 
L 289.807483 305.607338 
L 288.801708 305.864404 
L 287.457276 306.834535 
L 286.24817 306.849157 
L 285.0653 308.319544 
L 283.732882 309.302878 
L 282.633302 310.892042 
L 281.534604 313.446378 
L 281.427313 313.776139 
L 282.888649 314.901797 
L 284.038182 315.435084 
L 285.352809 315.468524 
L 286.451001 315.466046 
L 287.689586 315.635116 
L 288.768665 315.468713 
L 290.120279 315.575384 
L 291.331738 315.530057 
L 292.603902 315.590032 
L 293.817822 315.468846 
L 295.289695 315.444585 
L 296.499252 315.332179 
L 297.785767 315.338193 
L 299.104846 315.227048 
L 300.568126 315.187684 
L 301.80882 315.061438 
L 303.16888 314.9723 
L 304.532439 314.867061 
L 305.855655 314.824327 
L 307.006803 314.703979 
L 308.21851 314.642035 
L 309.532414 314.545219 
L 310.792917 314.46945 
L 312.014223 314.325778 
L 313.307454 314.309125 
L 314.61418 314.211039 
L 315.986144 314.1516 
L 317.194404 314.028623 
L 318.546527 314.046641 
L 319.824854 314.014925 
L 321.21463 313.95721 
L 322.470356 313.892962 
L 323.769966 313.926106 
L 325.04187 313.872446 
L 326.366825 313.780422 
L 327.50366 313.758476 
L 328.730622 313.729013 
L 329.803266 313.701951 
L 331.082778 313.635784 
L 332.201503 313.631219 
L 333.435492 313.570171 
L 334.620474 313.587431 
L 335.900276 313.491477 
L 337.248939 313.470376 
L 338.63524 313.300356 
L 339.764999 313.420659 
L 341.200832 313.582541 
L 342.282209 313.38029 
L 343.374523 313.370931 
" style="fill:none;stroke:#000000;stroke-linecap:square;"/>
   </g>
   <g id="line2d_17">
    <path clip-path="url(#p20bd83fdcc)" d="M 343.372185 246.074204 
L 342.461564 245.617909 
L 341.340732 245.05285 
L 339.987783 244.647466 
L 339.031123 244.184531 
L 337.681034 243.842639 
L 336.590764 243.425172 
L 335.347509 243.19619 
L 334.296967 242.799339 
L 333.008008 242.46713 
L 331.904585 242.14036 
L 330.603273 241.866633 
L 329.36293 241.514938 
L 328.04473 241.207229 
L 326.968883 240.887822 
L 325.580877 240.576842 
L 324.389951 240.261607 
L 322.946055 239.975575 
L 321.758008 239.700811 
L 320.327537 239.445737 
L 319.161127 239.149795 
L 317.731855 238.944076 
L 316.602427 238.727259 
L 315.218316 238.575266 
L 314.003449 238.371833 
L 312.651692 238.213208 
L 311.486082 238.062861 
L 310.040596 237.970063 
L 308.768296 237.818088 
L 307.412068 237.797536 
L 305.897328 237.702247 
L 304.467429 237.706517 
L 303.146059 237.683991 
L 301.639753 237.78895 
L 300.262468 237.793677 
L 299.016796 237.903723 
L 297.570721 238.015477 
L 296.400071 238.224945 
L 294.898741 238.379595 
L 293.756422 238.592427 
L 292.397402 238.890935 
L 291.164437 239.244392 
L 289.819378 239.56575 
L 289.041991 239.940053 
L 287.627989 240.33372 
L 286.493117 240.807562 
L 285.338963 241.499798 
L 284.097691 242.207908 
L 283.153638 243.41253 
L 281.973865 245.37054 
L 281.919804 245.625671 
L 283.334779 246.862154 
L 284.422604 247.531933 
L 285.603589 247.807302 
L 286.692218 247.941214 
L 287.94342 248.221474 
L 289.040103 248.26063 
L 290.384546 248.373974 
L 291.577165 248.447256 
L 292.804998 248.577813 
L 294.109268 248.64058 
L 295.559563 248.683604 
L 296.804297 248.663488 
L 298.114055 248.738746 
L 299.441456 248.741231 
L 300.887652 248.760524 
L 302.09783 248.75191 
L 303.455382 248.743566 
L 304.829064 248.686911 
L 306.174412 248.69182 
L 307.401855 248.646055 
L 308.717845 248.604009 
L 310.089643 248.572915 
L 311.427927 248.517102 
L 312.766425 248.411144 
L 314.150402 248.397051 
L 315.520459 248.287837 
L 316.98757 248.226113 
L 318.285586 248.091551 
L 319.644252 248.048907 
L 320.949492 247.942786 
L 322.293865 247.827745 
L 323.440479 247.678755 
L 324.622507 247.602165 
L 325.872253 247.476158 
L 327.119444 247.332234 
L 328.225601 247.21587 
L 329.398904 247.052136 
L 330.476609 246.908586 
L 331.645808 246.773163 
L 332.723308 246.605401 
L 333.812617 246.456957 
L 334.993127 246.300818 
L 336.16357 246.18989 
L 337.452764 246.017141 
L 338.773784 245.803583 
L 339.846092 245.705016 
L 341.218719 245.525584 
L 342.279617 245.354849 
L 343.354581 245.21542 
" style="fill:none;stroke:#000000;stroke-linecap:square;"/>
   </g>
   <g id="line2d_18">
    <path clip-path="url(#p20bd83fdcc)" d="M 343.302054 178.10087 
L 342.367541 177.849814 
L 341.280347 177.324464 
L 339.992929 176.946073 
L 339.068515 176.589693 
L 337.834667 176.347704 
L 336.812308 175.975222 
L 335.614944 175.736971 
L 334.716736 175.393286 
L 333.535988 175.075928 
L 332.529437 174.760725 
L 331.350719 174.472325 
L 330.197026 174.115751 
L 329.02598 173.811922 
L 327.919283 173.452409 
L 326.615283 173.141501 
L 325.344079 172.799512 
L 323.916129 172.512401 
L 322.718139 172.247064 
L 321.262423 171.989734 
L 319.930422 171.655856 
L 318.46353 171.40185 
L 317.247438 171.157408 
L 315.673049 170.957949 
L 314.355966 170.739687 
L 312.922451 170.595018 
L 311.712332 170.448525 
L 310.255152 170.360177 
L 308.937803 170.256061 
L 307.537155 170.289325 
L 306.077693 170.209038 
L 304.672278 170.255054 
L 303.401823 170.231394 
L 301.8755 170.372317 
L 300.601627 170.429928 
L 299.29706 170.579718 
L 297.920127 170.692996 
L 296.725045 170.922993 
L 295.341541 171.107674 
L 294.186532 171.346167 
L 292.811561 171.599507 
L 291.479548 171.928673 
L 290.099367 172.171576 
L 289.23429 172.525298 
L 287.703896 172.7564 
L 286.571451 173.268804 
L 285.303042 173.760654 
L 284.077531 174.356578 
L 283.282255 175.474058 
L 282.038274 177.190035 
L 282.030305 177.419298 
L 283.433013 178.596224 
L 284.611173 179.356305 
L 285.830124 179.679343 
L 286.882261 179.99725 
L 288.032183 180.25521 
L 289.105752 180.461148 
L 290.357632 180.671197 
L 291.507387 180.829765 
L 292.910938 181.034009 
L 294.229157 181.249049 
L 295.66445 181.337945 
L 296.952819 181.420857 
L 298.219282 181.522165 
L 299.478593 181.5732 
L 300.864913 181.634697 
L 302.085731 181.67931 
L 303.403335 181.786936 
L 304.779336 181.778203 
L 306.187251 181.814655 
L 307.47411 181.817101 
L 308.797339 181.775541 
L 310.133342 181.757628 
L 311.423251 181.69582 
L 312.745773 181.600861 
L 314.077654 181.575335 
L 315.385494 181.445402 
L 316.863081 181.36411 
L 318.148298 181.20027 
L 319.538628 181.148127 
L 320.74658 180.990393 
L 322.019079 180.849446 
L 323.24892 180.646349 
L 324.451837 180.542202 
L 325.750546 180.372215 
L 327.0297 180.199947 
L 328.221027 179.968109 
L 329.427914 179.775581 
L 330.601545 179.535644 
L 331.776007 179.337401 
L 332.878942 179.061202 
L 333.953384 178.827952 
L 335.115024 178.556608 
L 336.231347 178.336776 
L 337.438732 178.056017 
L 338.66797 177.767884 
L 339.746516 177.617015 
L 341.101406 177.380673 
L 342.185259 177.211105 
L 343.30595 177.070122 
" style="fill:none;stroke:#000000;stroke-linecap:square;"/>
   </g>
   <g id="line2d_19">
    <path clip-path="url(#p20bd83fdcc)" d="M 343.213952 109.708761 
L 342.223869 109.590757 
L 341.113494 109.141178 
L 339.846718 108.833242 
L 338.876536 108.542666 
L 337.665192 108.364441 
L 336.67766 108.026128 
L 335.460354 107.813644 
L 334.564 107.53435 
L 333.3867 107.248787 
L 332.428443 107.027449 
L 331.276195 106.765881 
L 330.18257 106.505965 
L 329.078224 106.263896 
L 328.002977 106.010437 
L 326.774469 105.764592 
L 325.5708 105.536153 
L 324.21111 105.306173 
L 323.051355 105.16374 
L 321.683301 104.947891 
L 320.328658 104.686756 
L 318.894146 104.45867 
L 317.691118 104.237796 
L 316.0902 104.039188 
L 314.772003 103.823783 
L 313.313352 103.666472 
L 312.086855 103.495258 
L 310.519645 103.386976 
L 309.214417 103.255879 
L 307.752098 103.230993 
L 306.30802 103.129334 
L 304.877643 103.147301 
L 303.489601 103.05192 
L 301.954136 103.159691 
L 300.69565 103.180659 
L 299.373528 103.295292 
L 297.876096 103.298593 
L 296.637684 103.517931 
L 295.359591 103.595798 
L 294.205328 103.727282 
L 292.859198 103.868561 
L 291.55082 104.072102 
L 290.086791 104.246687 
L 289.132529 104.59881 
L 287.661425 104.810386 
L 286.450637 105.333815 
L 285.09501 105.727363 
L 283.899178 106.255429 
L 283.049324 107.278976 
L 281.764494 108.724932 
L 281.721702 108.926195 
L 283.019518 110.345415 
L 284.200749 111.150937 
L 285.396854 111.608313 
L 286.493729 112.084778 
L 287.680441 112.39936 
L 288.756985 112.696662 
L 289.981111 113.008738 
L 291.162893 113.232556 
L 292.66956 113.426172 
L 294.026688 113.667479 
L 295.452076 113.780876 
L 296.881168 113.885579 
L 298.2636 114.003166 
L 299.523196 113.999542 
L 300.898773 114.081272 
L 302.137669 114.080726 
L 303.340679 114.136787 
L 304.604924 114.109137 
L 305.931211 114.087427 
L 307.207552 114.066468 
L 308.542806 114.031609 
L 309.89466 113.976789 
L 311.193073 113.929153 
L 312.497169 113.810354 
L 313.814002 113.749185 
L 315.184793 113.580375 
L 316.668037 113.470898 
L 317.937144 113.310866 
L 319.299026 113.237767 
L 320.47319 113.052556 
L 321.771955 112.878223 
L 322.990192 112.646623 
L 324.256923 112.511334 
L 325.520168 112.30702 
L 326.83832 112.123158 
L 328.058769 111.856239 
L 329.317766 111.648959 
L 330.550448 111.419113 
L 331.7585 111.181474 
L 332.893298 110.92084 
L 333.994073 110.693418 
L 335.138042 110.403389 
L 336.233008 110.217856 
L 337.413379 109.934188 
L 338.590827 109.666534 
L 339.671087 109.537778 
L 341.027421 109.343488 
L 342.13707 109.23084 
L 343.278012 109.096935 
" style="fill:none;stroke:#000000;stroke-linecap:square;"/>
   </g>
   <g id="line2d_20">
    <path clip-path="url(#p20bd83fdcc)" d="M 343.258484 41.464948 
L 342.264475 41.29251 
L 341.148112 40.869965 
L 339.87816 40.653482 
L 338.878618 40.459876 
L 337.666655 40.359576 
L 336.780688 40.110264 
L 335.64964 39.945138 
L 334.742059 39.783448 
L 333.660712 39.560251 
L 332.77709 39.434643 
L 331.686273 39.218323 
L 330.606725 39.057073 
L 329.57506 38.894891 
L 328.478791 38.699575 
L 327.308318 38.510597 
L 326.128881 38.340966 
L 324.791949 38.155038 
L 323.622626 38.027818 
L 322.24577 37.804505 
L 320.819577 37.580828 
L 319.291612 37.389865 
L 318.013344 37.185725 
L 316.396777 37.008424 
L 315.077773 36.799222 
L 313.604435 36.608425 
L 312.422006 36.427677 
L 310.758085 36.285878 
L 309.473298 36.108141 
L 307.970795 36.002647 
L 306.506549 35.833221 
L 304.98446 35.775102 
L 303.533168 35.572468 
L 301.916807 35.587176 
L 300.643298 35.511928 
L 299.311898 35.547464 
L 297.83748 35.480882 
L 296.57625 35.653285 
L 295.302528 35.661716 
L 294.253521 35.724962 
L 292.83627 35.809778 
L 291.470208 35.94105 
L 290.032416 36.077448 
L 288.896813 36.444999 
L 287.464597 36.61763 
L 286.187906 37.155415 
L 284.765388 37.512079 
L 283.580068 38.088559 
L 282.684895 39.027789 
L 281.545506 40.447013 
L 281.486124 40.706429 
L 282.757537 42.477846 
L 283.865638 43.383529 
L 285.010181 43.902359 
L 286.140195 44.481887 
L 287.273409 44.868341 
L 288.287628 45.27112 
L 289.413048 45.674191 
L 290.524934 45.985061 
L 292.006331 46.140784 
L 293.380721 46.400889 
L 294.731331 46.474682 
L 296.195743 46.56404 
L 297.686526 46.64932 
L 299.068206 46.57773 
L 300.491562 46.632903 
L 301.739411 46.578431 
L 302.998457 46.513679 
L 304.30391 46.479081 
L 305.651126 46.389476 
L 306.962984 46.292934 
L 308.404756 46.211118 
L 309.826511 46.075854 
L 311.22336 45.998211 
L 312.47732 45.838903 
L 313.663479 45.691005 
L 315.144678 45.522453 
L 316.52292 45.376197 
L 317.68656 45.208184 
L 318.993651 45.112643 
L 320.231555 44.940674 
L 321.528975 44.761331 
L 322.777887 44.566883 
L 324.121317 44.408977 
L 325.41641 44.199752 
L 326.804056 44.031469 
L 328.07584 43.777197 
L 329.370062 43.531906 
L 330.727144 43.363798 
L 332.003107 43.117151 
L 333.181479 42.912674 
L 334.306549 42.657456 
L 335.430323 42.428739 
L 336.468978 42.233714 
L 337.628302 42.016282 
L 338.75929 41.698216 
L 339.787559 41.604744 
L 341.131942 41.44934 
L 342.226885 41.336875 
L 343.327288 41.172879 
" style="fill:none;stroke:#000000;stroke-linecap:square;"/>
   </g>
   <g id="line2d_21">
    <path clip-path="url(#p20bd83fdcc)" d="M 425.781818 314.261913 
L 424.924801 312.749433 
L 423.724714 312.056478 
L 422.21582 311.284395 
L 421.127628 310.557235 
L 419.552331 309.784501 
L 418.291577 309.08633 
L 416.931623 308.529092 
L 415.724681 307.785727 
L 414.36752 307.168408 
L 413.228284 306.607187 
L 411.978084 306.155364 
L 410.681922 305.559488 
L 409.48445 304.990933 
L 408.511951 304.453854 
L 407.081253 303.963771 
L 405.901332 303.381495 
L 404.505054 302.897732 
L 403.433975 302.505644 
L 401.918101 301.991945 
L 401.031742 301.411532 
L 399.473844 301.120888 
L 398.393789 300.882566 
L 396.924164 300.442729 
L 395.855564 300.183762 
L 394.390365 300.097486 
L 393.225809 299.846479 
L 391.63752 299.965268 
L 390.656453 299.464897 
L 389.108805 299.59337 
L 387.531915 299.459307 
L 385.900399 299.515275 
L 384.610492 299.281616 
L 383.000125 299.726262 
L 381.477331 299.517988 
L 380.314434 299.883966 
L 378.642743 299.760831 
L 377.538316 299.917596 
L 375.95338 300.034534 
L 374.776231 300.407277 
L 373.52499 300.69201 
L 372.355159 301.149167 
L 371.185452 301.577052 
L 370.564404 301.777524 
L 369.017955 303.006033 
L 367.916624 303.194796 
L 366.816378 304.601078 
L 365.524985 305.91339 
L 364.547567 308.7405 
L 363.559153 312.028301 
L 363.421493 312.067238 
L 364.669445 313.097548 
L 365.78536 313.786177 
L 366.958658 313.557916 
L 367.955436 313.535703 
L 369.124711 313.543221 
L 370.214226 313.375544 
L 371.54407 313.49574 
L 372.867027 313.590505 
L 374.284806 313.633218 
L 375.511769 313.541018 
L 377.052864 313.503473 
L 378.418563 313.495849 
L 379.680873 313.483263 
L 380.953352 313.428943 
L 382.462055 313.343192 
L 383.643795 313.319618 
L 385.010158 313.170632 
L 386.371517 313.18674 
L 387.767897 313.178168 
L 388.890825 313.171225 
L 390.234037 313.160448 
L 391.63836 313.185094 
L 393.034826 313.20853 
L 394.32008 313.153745 
L 395.717877 313.300449 
L 397.103977 313.324602 
L 398.681441 313.483691 
L 399.797392 313.433369 
L 401.301456 313.652847 
L 402.541334 313.729208 
L 403.97656 313.878779 
L 405.222854 313.888884 
L 406.598314 314.201493 
L 407.898085 314.248569 
L 409.29507 314.407809 
L 410.466519 314.478237 
L 411.717289 314.606907 
L 412.727831 314.680112 
L 413.917975 314.737001 
L 414.99038 314.683233 
L 416.130023 314.732588 
L 417.221283 314.628175 
L 418.473565 314.42982 
L 419.656435 314.381869 
L 420.978184 313.912812 
L 422.077734 314.110538 
L 423.478711 313.974471 
L 424.550197 313.422668 
L 425.625083 312.783244 
" style="fill:none;stroke:#000000;stroke-linecap:square;"/>
   </g>
   <g id="line2d_22">
    <path clip-path="url(#p20bd83fdcc)" d="M 425.740433 246.282154 
L 424.913741 245.422954 
L 423.823683 244.902228 
L 422.51251 244.530988 
L 421.567123 244.189992 
L 420.224467 243.77312 
L 419.14979 243.41829 
L 417.974393 243.118332 
L 416.940203 242.694582 
L 415.748876 242.265862 
L 414.693377 241.86508 
L 413.527283 241.519268 
L 412.376555 241.051286 
L 411.182386 240.577874 
L 410.186109 240.116495 
L 408.786454 239.708541 
L 407.52223 239.175903 
L 406.066126 238.757825 
L 404.944217 238.334695 
L 403.465063 237.949684 
L 402.266436 237.433164 
L 400.787612 237.085663 
L 399.672128 236.68431 
L 398.12879 236.351454 
L 396.884008 235.934763 
L 395.334399 235.632343 
L 394.142209 235.266891 
L 392.469261 235.053206 
L 391.296824 234.678808 
L 389.790405 234.513093 
L 388.248305 234.294396 
L 386.648043 234.220758 
L 385.387011 233.971648 
L 383.713224 234.286977 
L 382.264117 234.190171 
L 381.036241 234.526568 
L 379.46182 234.420474 
L 378.285435 234.734144 
L 376.658862 235.007586 
L 375.535137 235.312235 
L 374.201565 235.762421 
L 373.036429 236.127493 
L 371.749556 236.743019 
L 370.980944 236.951233 
L 369.262491 237.866577 
L 368.148079 238.353001 
L 366.957652 239.560996 
L 365.660525 240.432704 
L 364.725044 242.534464 
L 363.671969 244.751056 
L 363.50296 245.069443 
L 364.811513 246.155821 
L 365.969969 246.908789 
L 367.085498 247.013895 
L 368.181598 247.23135 
L 369.398328 247.403874 
L 370.458171 247.454336 
L 371.819535 247.578997 
L 373.037056 247.724413 
L 374.276911 247.872469 
L 375.515132 247.942736 
L 376.956031 248.031174 
L 378.243613 248.131591 
L 379.487334 248.204326 
L 380.750236 248.316989 
L 382.233933 248.392212 
L 383.436343 248.474126 
L 384.857525 248.50851 
L 386.306949 248.636415 
L 387.793364 248.734409 
L 389.056596 248.795958 
L 390.479528 248.861113 
L 391.937179 248.915759 
L 393.350121 248.970748 
L 394.765177 248.963639 
L 396.288054 249.046865 
L 397.742597 248.950556 
L 399.471609 248.911474 
L 400.763041 248.741478 
L 402.362552 248.730815 
L 403.680209 248.525151 
L 405.171359 248.346572 
L 406.441024 248.156957 
L 407.721296 248.10657 
L 408.97274 247.94469 
L 410.253067 247.811264 
L 411.341582 247.64182 
L 412.466835 247.498658 
L 413.408052 247.39319 
L 414.470399 247.236805 
L 415.535565 247.02896 
L 416.565838 246.912437 
L 417.646026 246.822708 
L 418.813409 246.622369 
L 420.003064 246.52502 
L 421.268626 246.294613 
L 422.273221 246.278239 
L 423.587173 246.256133 
L 424.612797 245.796778 
L 425.637923 245.43812 
" style="fill:none;stroke:#000000;stroke-linecap:square;"/>
   </g>
   <g id="line2d_23">
    <path clip-path="url(#p20bd83fdcc)" d="M 425.673115 178.165024 
L 424.833757 177.592039 
L 423.807752 177.155935 
L 422.608306 176.84145 
L 421.713963 176.530869 
L 420.514592 176.199529 
L 419.554435 175.858225 
L 418.414022 175.578858 
L 417.487593 175.232792 
L 416.352248 174.864293 
L 415.343333 174.530017 
L 414.247362 174.247236 
L 413.113343 173.861414 
L 411.995925 173.508794 
L 410.948422 173.118771 
L 409.573412 172.781851 
L 408.3264 172.392553 
L 406.832803 172.042183 
L 405.617061 171.701663 
L 404.132223 171.372908 
L 402.766762 170.928799 
L 401.273039 170.601894 
L 400.098376 170.19052 
L 398.500783 169.844752 
L 397.278111 169.443505 
L 395.748239 169.138785 
L 394.581556 168.773534 
L 392.915392 168.512043 
L 391.783974 168.163595 
L 390.346907 167.999081 
L 388.839512 167.708698 
L 387.336125 167.605519 
L 386.064983 167.379967 
L 384.392426 167.468566 
L 382.912465 167.438756 
L 381.615986 167.606495 
L 380.051729 167.695185 
L 378.767137 167.999054 
L 377.272815 168.249241 
L 376.082429 168.493307 
L 374.683829 168.865765 
L 373.378766 169.214304 
L 371.972238 169.712161 
L 371.037832 170.110826 
L 369.270187 170.660044 
L 368.084369 171.246741 
L 366.875825 172.05578 
L 365.462479 172.682229 
L 364.573074 174.387983 
L 363.322307 176.655869 
L 363.207042 177.023201 
L 364.524821 178.822925 
L 365.740653 179.847425 
L 366.930228 180.370843 
L 368.109255 180.880254 
L 369.337004 181.244492 
L 370.442946 181.563778 
L 371.788059 181.8976 
L 373.023474 182.180047 
L 374.434862 182.493849 
L 375.751831 182.773842 
L 377.22954 182.966625 
L 378.486181 183.120138 
L 379.722541 183.298184 
L 381.036001 183.479268 
L 382.437017 183.631852 
L 383.561614 183.665575 
L 385.01097 183.727167 
L 386.483937 183.891445 
L 387.930131 183.928399 
L 389.292999 183.956224 
L 390.806374 183.943904 
L 392.31921 183.936379 
L 393.720778 183.904623 
L 395.123546 183.82669 
L 396.568936 183.834195 
L 397.934613 183.600766 
L 399.598873 183.467611 
L 400.879204 183.22348 
L 402.384237 183.108556 
L 403.707926 182.80029 
L 405.107101 182.51224 
L 406.394798 182.214462 
L 407.638731 181.931171 
L 408.922618 181.684875 
L 410.227453 181.395428 
L 411.350568 181.070393 
L 412.50218 180.738167 
L 413.590245 180.488918 
L 414.690364 180.182382 
L 415.77253 179.889787 
L 416.803257 179.596097 
L 417.879919 179.345488 
L 419.00077 179.046313 
L 420.129304 178.777093 
L 421.331167 178.461396 
L 422.27759 178.262393 
L 423.547542 178.051675 
L 424.580369 177.719201 
L 425.602884 177.512395 
" style="fill:none;stroke:#000000;stroke-linecap:square;"/>
   </g>
   <g id="line2d_24">
    <path clip-path="url(#p20bd83fdcc)" d="M 425.605629 109.87017 
L 424.713427 109.451807 
L 423.664356 108.97784 
L 422.47063 108.706372 
L 421.54263 108.395497 
L 420.395808 108.064129 
L 419.483355 107.728592 
L 418.37375 107.396382 
L 417.455384 107.079472 
L 416.33056 106.672768 
L 415.354032 106.350577 
L 414.239474 106.026818 
L 413.092756 105.617773 
L 411.977875 105.270276 
L 410.853948 104.829096 
L 409.450282 104.447046 
L 408.187271 104.032738 
L 406.645658 103.662265 
L 405.397398 103.309001 
L 403.957188 102.961793 
L 402.602545 102.504563 
L 401.160295 102.193357 
L 399.954872 101.791454 
L 398.314892 101.480353 
L 397.114761 101.139446 
L 395.624859 100.885479 
L 394.445191 100.590981 
L 392.84707 100.395197 
L 391.766857 100.126317 
L 390.350518 100.008208 
L 388.895422 99.758086 
L 387.427975 99.713114 
L 386.085848 99.459313 
L 384.401276 99.549226 
L 383.005914 99.512958 
L 381.622678 99.629384 
L 380.113214 99.686581 
L 378.843039 99.993993 
L 377.435993 100.172152 
L 376.335305 100.356325 
L 374.898174 100.632258 
L 373.483999 100.901693 
L 372.018816 101.371835 
L 371.013448 101.797819 
L 369.284974 102.297661 
L 368.085736 103.061317 
L 366.74653 103.812425 
L 365.605928 104.690247 
L 364.519322 106.356476 
L 363.28176 108.667963 
L 363.269076 109.063556 
L 364.618229 111.664771 
L 365.807462 112.912371 
L 367.07495 113.74624 
L 368.372168 114.44616 
L 369.643215 114.915488 
L 370.753099 115.403894 
L 372.050617 115.82211 
L 373.27479 116.160412 
L 374.704367 116.497349 
L 376.035345 116.823959 
L 377.472634 117.044464 
L 378.847539 117.272065 
L 380.226153 117.466341 
L 381.61731 117.592284 
L 383.03725 117.720943 
L 384.198342 117.773482 
L 385.549077 117.719109 
L 386.980051 117.803019 
L 388.388108 117.751045 
L 389.708939 117.675335 
L 391.196343 117.495746 
L 392.721258 117.368306 
L 394.125844 117.265038 
L 395.399852 117.077679 
L 396.720692 116.91665 
L 398.038092 116.641498 
L 399.452997 116.412059 
L 400.689697 116.099842 
L 401.984366 115.946334 
L 403.187264 115.644116 
L 404.449344 115.371974 
L 405.790845 115.070073 
L 407.095218 114.82715 
L 408.34782 114.611971 
L 409.68387 114.282898 
L 410.928651 113.95036 
L 412.137463 113.590078 
L 413.330116 113.331641 
L 414.498646 112.943919 
L 415.631998 112.60736 
L 416.72585 112.200975 
L 417.794439 111.862712 
L 418.846522 111.437646 
L 419.961482 111.117933 
L 421.136242 110.66948 
L 422.105805 110.406824 
L 423.417705 110.143865 
L 424.496385 109.798587 
L 425.563015 109.496361 
" style="fill:none;stroke:#000000;stroke-linecap:square;"/>
   </g>
   <g id="line2d_25">
    <path clip-path="url(#p20bd83fdcc)" d="M 425.645349 41.667948 
L 424.750023 41.100239 
L 423.691653 40.65363 
L 422.48826 40.469099 
L 421.526535 40.202574 
L 420.395096 39.86212 
L 419.579352 39.451452 
L 418.542026 39.068491 
L 417.59366 38.656291 
L 416.542827 38.177925 
L 415.668557 37.774134 
L 414.530512 37.320107 
L 413.434913 36.870236 
L 412.340506 36.477997 
L 411.127308 35.966745 
L 409.772996 35.552349 
L 408.479568 35.104199 
L 406.960141 34.737544 
L 405.723426 34.355314 
L 404.311262 33.97428 
L 402.956291 33.438037 
L 401.541546 33.087125 
L 400.306737 32.628124 
L 398.589608 32.291301 
L 397.387134 31.857944 
L 395.897012 31.571396 
L 394.658745 31.226171 
L 393.034906 31.036069 
L 391.958877 30.692862 
L 390.445698 30.544963 
L 389.087855 30.255992 
L 387.621665 30.170068 
L 386.277589 29.831175 
L 384.66116 29.879511 
L 383.270376 29.781818 
L 381.813142 29.871969 
L 380.283212 29.923385 
L 378.953256 30.229237 
L 377.5227 30.343946 
L 376.4469 30.530325 
L 374.92258 30.794198 
L 373.522723 31.131288 
L 371.936789 31.569908 
L 370.999125 32.200636 
L 369.368332 32.846122 
L 368.118964 33.806508 
L 366.747867 34.629727 
L 365.740062 35.254231 
L 364.654177 37.71023 
L 363.53269 40.060534 
L 363.497462 39.94688 
L 364.689661 43.639416 
L 365.620509 45.408119 
L 366.753089 46.48995 
L 368.035681 47.215917 
L 369.284736 47.743211 
L 370.336862 48.44146 
L 371.543992 49.041794 
L 372.680585 49.565839 
L 374.086419 49.917088 
L 375.361484 50.288808 
L 376.741142 50.598899 
L 378.032708 50.968979 
L 379.396015 51.168325 
L 380.814697 51.264019 
L 382.237854 51.39529 
L 383.300242 51.517135 
L 384.566614 51.385856 
L 385.993778 51.521299 
L 387.368049 51.40322 
L 388.595005 51.348157 
L 390.080188 51.084335 
L 391.772338 50.876457 
L 393.302434 50.780105 
L 394.618725 50.629973 
L 395.916306 50.388991 
L 397.412819 50.067424 
L 398.78673 49.791035 
L 400.01002 49.484702 
L 401.237992 49.274653 
L 402.523622 48.945422 
L 403.789396 48.617624 
L 405.206647 48.311671 
L 406.60021 48.005642 
L 407.928487 47.760473 
L 409.36034 47.366008 
L 410.706407 46.963799 
L 411.979771 46.499783 
L 413.275731 46.241504 
L 414.536939 45.723631 
L 415.724949 45.280786 
L 416.856257 44.724989 
L 417.920377 44.31213 
L 418.940464 43.781206 
L 420.017927 43.470116 
L 421.126477 42.8884 
L 422.10852 42.674797 
L 423.415024 42.398522 
L 424.501498 41.988863 
L 425.574343 41.568609 
" style="fill:none;stroke:#000000;stroke-linecap:square;"/>
   </g>
  </g>
 </g>
 <defs>
  <clipPath id="p20bd83fdcc">
   <rect height="314.64" width="429.84" x="15.48" y="15.48"/>
  </clipPath>
 </defs>
</svg>
